<?xml version="1.0" encoding="UTF-8" standalone="no"?>
<!DOCTYPE svg  PUBLIC '-//W3C//DTD SVG 1.1//EN'  'http://www.w3.org/Graphics/SVG/1.1/DTD/svg11.dtd'>
<svg xmlns="http://www.w3.org/2000/svg" version="1.1">
<defs>
<font id="BasicHandwriting" horiz-adv-x="640">
<font-face font-weight="500" descent="-256" underline-position="-253" cap-height="768" font-family="BasicHandwriting" panose-1="2 0 6 3 0 0 0 0 0 0" bbox="-128 -256 896 768" units-per-em="1024" underline-thickness="51" ascent="768" unicode-range="U+0020-00A9" x-height="448"/>
<missing-glyph/>
<glyph unicode=" " glyph-name="space" horiz-adv-x="320"/>
<glyph unicode="!" glyph-name="exclam" d="M64 192v64h-64v64v64v64v64v64h64v64v64v64h64h64h64v-64h64v-64h-64v-64v-64h-64v-64v-64v-64h-64v-64v-64h-64zM128 -64h-64h-64v64v64h-64v64h64h64h64v-64v-64h64v-64h-64z" horiz-adv-x="384"/>
<glyph unicode='&quot;' glyph-name="quotedbl" d="M64 448v64h-64v64v64h-64v64v64h64h64v-64h64v-64v-64v-64v-64h-64zM320 448h-64v64h-64v64v64v64v64h64h64v-64v-64h64v-64v-64v-64h-64z" horiz-adv-x="448"/>
<glyph unicode="#" glyph-name="numbersign" d="M320 0h-64h-64v64h64v64v64h-64h-64v-64v-64h-64v-64h-64h-64v64v64h64v64h64v64h-64h-64h-64v64v64h64h64h64v-64h64v64v64h-64h-64h-64v64h-64v64h64v64h64v-64h64h64h64v64v64h64v64h64h64v-64v-64h-64v-64v-64h64v64h64v64v64h64v64h64v-64v-64v-64h-64v-64h64v-64 h64h64v-64v-64h-64h-64h-64v64h-64v-64v-64h64v-64h64h64v-64v-64h-64h-64h-64v64h-64v-64v-64h-64zM320 256v64v64h-64v-64v-64h64z" horiz-adv-x="768"/>
<glyph unicode="$" glyph-name="dollar" d="M64 -192h-64v64v64v64v64h-64v64v64v64h64v-64h64v-64h64v64h64v64v64v64h-64v64h-64v64v64v64h64v64h64h64h64h64v64h64h64h64h64v-64h-64v-64v-64h64h64v-64v-64v-64h-64h-64v64h-64v64h-64v-64v-64h-64v-64h64v-64h64v-64h64v-64h64v-64v-64v-64h-64h-64v-64h-64h-64 h-64h-64v64h-64h-64v-64v-64h-64zM384 64h64v64v64h-64v64h-64v-64v-64h-64v-64v-64h64v64h64zM320 448v64v64h-64h-64v-64h64v-64h64z" horiz-adv-x="768"/>
<glyph unicode="%" glyph-name="percent" d="M768 0h-64h-64h-64v64h-64v64v64h64v64v64h64v64v64h64h64v-64h64h64v-64v-64v-64v-64v-64h-64v-64h-64zM192 0h-64v64h64v64v64h64v64h64v64v64h64v64h64v64h64v64h64v64v64h64v64h64h64h64v-64h-64v-64h-64v-64h-64v-64v-64h-64v-64h-64v-64h-64v-64h-64v-64v-64h-64 v-64h-64v-64h-64zM704 128h64v64v64v64h-64v-64h-64v-64v-64h64zM128 320h-64v64v64h-64v64v64v64v64h64v64h64h64h64h64v-64h64v-64v-64h-64v-64v-64h-64v-64h-64v-64h-64zM192 448v64h64v64v64h-64h-64v-64v-64v-64h64z" horiz-adv-x="960"/>
<glyph unicode="&amp;" glyph-name="ampersand" d="M704 -64h-64h-64v64h-64v64h-64v-64v-64h-64h-64h-64h-64h-64h-64v64h-64v64v64v64v64v64h64v64h64v64h-64v64h-64v64v64h64v64h64v64h64h64h64h64v-64h64v-64v-64v-64h-64v-64h-64v-64h64v-64h64v-64h64v64h64h64v-64v-64h-64v-64h64v-64h64v-64h64v-64h-64zM256 64h64 v64h64v64h-64v64h-64v64h-64v-64h-64v-64v-64h64v-64h64zM192 512h64v64h64v64h-64h-64v-64h-64v-64h64z" horiz-adv-x="832"/>
<glyph unicode="&apos;" glyph-name="quotesingle" d="M128 384h-64v64h-64v64v64v64v64h64v64h64h64v-64v-64v-64h-64v-64v-64h64v-64h-64z" horiz-adv-x="256"/>
<glyph unicode="(" glyph-name="parenleft" d="M256 -192h-64h-64v64h-64v64h-64v64v64v64v64v64v64v64v64v64h64v64h64v64h64v64h64v64h64h64v-64v-64h-64v-64h-64h-64v-64v-64h-64v-64v-64v-64v-64v-64v-64v-64h64v-64h64v-64h64v-64h-64z" horiz-adv-x="448"/>
<glyph unicode=")" glyph-name="parenright" d="M64 -192h-64v64v64h64v64h64v64v64h64v64v64v64v64v64v64v64h-64v64h-64v64v64h64h64v-64h64v-64h64v-64v-64v-64v-64v-64v-64v-64v-64v-64h-64v-64h-64v-64h-64v-64v-64h-64z" horiz-adv-x="384"/>
<glyph unicode="*" glyph-name="asterisk" d="M256 320h-64v64v64h-64v-64h-64v-64h-64h-64v64h64v64v64h64v64h-64h-64v64v64h-64v64h64h64v-64h64v-64h64v64h64v64h64h64v-64v-64h-64v-64h64h64h64v-64v-64h-64h-64v-64v-64h-64z" horiz-adv-x="512"/>
<glyph unicode="+" glyph-name="plus" d="M256 128h-64v64v64v64h-64v64h-64v64h64h64h64v64v64h64v64h64v-64v-64v-64h64h64v-64h64v-64h-64h-64h-64h-64v-64v-64v-64h-64z"/>
<glyph unicode="," glyph-name="comma" d="M128 -64h-64v64h64v64v64h-64v64h64h64h64v-64v-64v-64h-64v-64h-64z" horiz-adv-x="320"/>
<glyph unicode="-" glyph-name="hyphen" d="M256 256h-64h-64h-64h-64v64h64v64h64h64h64h64h64v-64h-64v-64h-64z" horiz-adv-x="448"/>
<glyph unicode="." glyph-name="period" d="M128 0h-64v64v64h64v64h64h64v-64v-64h-64v-64h-64z" horiz-adv-x="320"/>
<glyph unicode="/" glyph-name="slash" d="M-64 -64v64v64v64v64v64h64v64h64v64v64v64h64v64v64h64v64v64h64h64v-64v-64v-64h-64v-64v-64h-64v-64v-64v-64h-64v-64v-64h-64v-64v-64h-64v-64h-64z" horiz-adv-x="384"/>
<glyph unicode="0" glyph-name="zero" d="M384 -64h-64h-64h-64v64h-64h-64v64v64h-64v64v64h-64v64v64v64h64v64v64h64v64v64h64v64h64h64h64h64h64h64v-64h64v-64v-64v-64h64v-64v-64v-64v-64h-64v-64v-64h-64v-64v-64h-64v-64h-64zM320 64v64h64v64h64v64v64h64v64h-64h-64v-64h-64h-64h-64v-64h-64v-64v-64h64 h64v-64h64zM256 448h64v64h64h64v64h-64v64h-64h-64h-64v-64h-64v-64v-64h64h64z" horiz-adv-x="704"/>
<glyph unicode="1" glyph-name="one" d="M128 512v64v64h64v64h64h64v64h64h64v-64v-64v-64v-64h-64v-64v-64v-64v-64v-64v-64h64v-64h64v-64h-64h-64h-64h-64h-64h-64v64h64v64v64h64v64v64v64v64v64v64h-64v-64h-64z" horiz-adv-x="576"/>
<glyph unicode="2" glyph-name="two" d="M0 448v64v64v64h64v64h64v64h64h64h64h64h64v-64h64v-64h64v-64v-64v-64h-64v-64h-64v-64h-64v-64h-64v-64h-64h-64v-64h64h64h64h64h64v-64h64v-64h-64h-64h-64h-64h-64h-64h-64h-64h-64v64v64h64v64v64h64v64h64h64v64h64v64h64v64h64v64h-64h-64v64h-64h-64v-64h-64 v-64h-64v-64h-64z"/>
<glyph unicode="3" glyph-name="three" d="M384 0h-64h-64h-64h-64v64h-64h-64v64v64v64h64v-64h64h64v-64h64h64h64v64v64h-64v64h-64v64v64h64v64h64v64v64h-64h-64v-64h-64v-64h-64h-64v64v64h64v64h64v64h64h64h64v-64h64h64v-64v-64v-64v-64h-64v-64v-64h64v-64v-64v-64v-64h-64v-64h-64z" horiz-adv-x="576"/>
<glyph unicode="4" glyph-name="four" d="M320 -64h-64v64v64v64v64v64h64v64h-64h-64h-64h-64h-64v64v64v64v64v64h64v64v64h64h64v-64v-64h-64v-64v-64v-64h64h64h64h64v64v64v64v64h64v64h64h64v-64v-64v-64h-64v-64v-64v-64h-64v-64v-64v-64v-64v-64v-64h-64v-64h-64z"/>
<glyph unicode="5" glyph-name="five" d="M256 0h-64h-64h-64v64h-64v64v64h64v64h64v-64v-64h64h64h64v64v64v64h-64h-64h-64h-64v64h-64v64v64v64v64h64v64v64h64h64h64h64h64h64h64v-64h-64v-64h-64h-64h-64h-64v-64v-64h-64v-64h64h64h64v-64h64h64v-64h64v-64v-64h-64v-64v-64h-64h-64v-64h-64z" horiz-adv-x="576"/>
<glyph unicode="6" glyph-name="six" d="M320 0h-64h-64h-64v64h-64h-64v64v64v64v64v64v64v64h64v64h64v64v64h64v64h64h64h64v-64h-64v-64h-64v-64h-64v-64h-64v-64v-64h64v64h64h64h64v-64h64v-64h64v-64v-64v-64h-64v-64h-64v-64h-64zM256 128h64v64h64v64v64h-64h-64v-64h-64v-64v-64h64z" horiz-adv-x="576"/>
<glyph unicode="7" glyph-name="seven" d="M256 0h-64h-64v64v64h64v64v64v64h-64h-64v64h64v64h64h64v64h64v64h64v64h-64h-64h-64h-64h-64h-64v64h64v64h64h64h64h64h64h64h64v-64h64v-64h-64v-64v-64h-64v-64h64h64v-64h-64v-64h-64h-64v-64v-64h-64v-64v-64v-64h-64z"/>
<glyph unicode="8" glyph-name="eight" d="M320 -64h-64h-64h-64h-64v64v64h-64v64v64h64v64h64v64h64v64h-64v64h-64v64v64v64v64h64v64h64h64h64h64v-64h64v-64v-64h64v-64v-64v-64h-64v-64h64v-64v-64v-64v-64h-64v-64h-64v-64h-64zM256 64h64v64h64v64v64h-64v64h-64v-64h-64v-64h-64v-64v-64h64h64zM320 448 h64v64v64v64h-64h-64h-64v-64v-64v-64h64h64z" horiz-adv-x="576"/>
<glyph unicode="9" glyph-name="nine" d="M320 0h-64h-64h-64v64h64v64v64h64v64h64v64h-64h-64h-64v64h-64v64h-64v64v64h64v64v64h64v64h64h64h64h64h64v-64h64v-64v-64h64v-64v-64v-64h-64v-64v-64h-64v-64h-64v-64v-64v-64h-64zM320 448h64v64h64v64h-64v64h-64h-64h-64v-64v-64v-64h64h64z"/>
<glyph unicode=":" glyph-name="colon" d="M64 0h-64v64v64h64v64h64h64v-64v-64h-64v-64h-64zM64 384h-64v64v64h64v64h64h64v-64v-64h-64v-64h-64z" horiz-adv-x="256"/>
<glyph unicode=";" glyph-name="semicolon" d="M64 -64h-64v64h64v64v64h-64v64h64h64h64v-64v-64v-64h-64v-64h-64zM64 384h-64v64v64h64v64h64h64v-64v-64h-64v-64h-64z" horiz-adv-x="256"/>
<glyph unicode="&lt;" glyph-name="less" d="M576 64h-64v64h-64h-64v64h-64h-64v64h-64h-64v64h-64h-64v64h-64v64h64h64h64v64h64h64v64h64h64v64h64h64h64v-64h-64v-64h-64h-64v-64h-64h-64v-64v-64h64h64v-64h64h64h64v-64h64v-64v-64h-64z" horiz-adv-x="704"/>
<glyph unicode="=" glyph-name="equal" d="M576 128h-64h-64h-64h-64v64h-64h-64h-64v64v64h64h64h64h64v-64h64h64h64v-64h64v-64h-64zM512 384h-64h-64h-64h-64h-64h-64v64h-64v64h64h64h64h64h64h64h64v-64h64v-64h-64z" horiz-adv-x="704"/>
<glyph unicode="&gt;" glyph-name="greater" d="M128 128h-64v64v64h64h64h64v64h64h64v64h-64v64h-64v64h-64h-64v64h-64v64h64h64h64v-64h64v-64h64h64v-64h64h64v-64v-64h-64v-64h-64h-64h-64v-64h-64h-64v-64h-64z"/>
<glyph unicode="?" glyph-name="question" d="M128 384v64h-64v64v64v64h64v64h64v64h64h64h64h64h64v-64h64v-64v-64v-64v-64h-64v-64h-64v-64v-64v-64h-64h-64v64v64v64h64v64h64v64v64h-64v64h-64h-64h-64v-64v-64v-64v-64h-64zM448 0h-64v64v64h64h64v-64v-64h-64z"/>
<glyph unicode="@" glyph-name="at" d="M640 -256h-64h-64h-64h-64h-64h-64h-64v64h-64h-64v64v64h-64v64h-64v64v64v64v64v64h64v64v64v64v64h64v64h64v64h64h64v64h64h64h64h64h64h64h64v-64h64v-64h64v-64v-64h64v-64v-64v-64v-64v-64h-64v-64v-64h-64h-64v-64h-64h-64h-64v64h-64v-64h-64h-64v64h-64h-64v64 v64v64v64v64h64v64v64h64h64v64h64h64h64v-64h64v-64v-64v-64v-64h-64v-64v-64h64h64v64v64v64h64v64v64v64h-64v64h-64v64h-64h-64h-64h-64h-64h-64v-64h-64v-64h-64v-64v-64v-64h-64v-64v-64v-64v-64v-64h64v-64h64v-64h64h64h64h64h64h64h64h64v64h64v64h64v-64v-64h-64 v-64h-64v-64h-64zM448 128v64h64v64v64v64v64h-64h-64v-64h-64v-64v-64v-64h64v-64h64z" horiz-adv-x="960"/>
<glyph unicode="A" glyph-name="A" d="M640 0h-64v64h-64v64h-64v64h-64h-64h-64h-64h-64v-64v-64v-64h-64h-64v64v64h64v64v64h64v64v64h64v64v64v64h64v64v64h64v64h64v-64v-64v-64h64v-64v-64h64v-64v-64h64v-64h64v-64v-64h64v-64v-64h-64zM320 256v64h64v64h-64h-64v-64v-64h64z" horiz-adv-x="768"/>
<glyph unicode="B" glyph-name="B" d="M512 -64h-64h-64h-64h-64h-64h-64v64h-64h-64v64v64v64v64v64h64v64v64v64v64v64v64h64v64h64h64h64h64h64h64v-64h64v-64v-64v-64h-64v-64h-64v-64h-64v-64h64h64v-64h64v-64h64v-64v-64v-64h-64v-64h-64zM384 64h64v64v64h-64v64h-64v64h-64h-64v-64v-64v-64v-64h64h64 h64zM320 448h64v64h64v64h-64v64h-64h-64h-64v-64v-64v-64h64h64z" horiz-adv-x="704"/>
<glyph unicode="C" glyph-name="C" d="M512 512v64h-64v64h-64h-64h-64v-64h-64v-64v-64h-64v-64v-64v-64v-64h64h64v-64h64h64v64h64h64v64h64v-64v-64h-64v-64h-64v-64h-64h-64h-64h-64h-64v64h-64v64h-64v64v64v64v64v64v64v64h64v64v64h64v64h64h64h64h64h64v-64h64v-64h64v-64v-64h-64z"/>
<glyph unicode="D" glyph-name="D" d="M320 0h-64h-64h-64h-64h-64v64v64v64v64v64v64h64v64v64v64v64v64h64v64h64h64h64v-64h64h64v-64h64v-64h64v-64v-64v-64v-64v-64v-64h-64v-64h-64v-64h-64v-64h-64zM192 128h64v64h64h64v64h64v64v64v64v64h-64v64h-64h-64v64h-64v-64v-64v-64v-64v-64h-64v-64v-64v-64 h64z"/>
<glyph unicode="E" glyph-name="E" d="M384 0h-64h-64h-64h-64h-64v64v64v64v64v64h-64v64v64v64v64v64v64v64h64h64h64h64h64h64h64v-64v-64h-64h-64h-64h-64h-64v-64v-64v-64h64h64h64h64h64v-64v-64h-64h-64h-64h-64v-64v-64v-64h64v64h64h64h64h64h64v-64v-64h-64h-64v-64h-64z"/>
<glyph unicode="F" glyph-name="F" d="M64 0h-64v64v64v64v64v64v64v64v64h64v64v64v64h64v64h64h64h64h64h64h64h64v-64h-64v-64h-64h-64v-64h-64h-64h-64v-64v-64h64h64h64h64v-64h-64v-64h-64h-64h-64h-64v-64v-64v-64v-64v-64h-64z"/>
<glyph unicode="G" glyph-name="G" d="M320 -64h-64h-64h-64v64h-64v64h-64v64v64v64v64v64v64v64h64v64v64h64v64h64v64h64h64h64h64h64h64v-64v-64h64v-64h64v-64h-64h-64h-64v64h-64v64h-64h-64h-64v-64h-64v-64h-64v-64v-64v-64v-64v-64v-64h64h64h64h64h64h64v64v64h-64h-64h-64v64h-64v64h64v64h64v-64 h64h64h64h64v-64v-64v-64v-64v-64h-64v-64h-64h-64h-64v-64h-64z" horiz-adv-x="768"/>
<glyph unicode="H" glyph-name="H" d="M64 0v64v64v64v64v64v64v64h-64v64v64v64v64v64h64h64h64v-64v-64v-64v-64h64h64v-64h64h64v64v64v64h64v64v64h64h64v-64v-64v-64v-64h-64v-64v-64v-64v-64v-64v-64v-64h-64v-64v-64h-64h-64v64v64v64h64v64v64v64h-64h-64h-64h-64v-64v-64v-64v-64h-64v-64h-64z" horiz-adv-x="704"/>
<glyph unicode="I" glyph-name="I" d="M448 0h-64h-64h-64h-64h-64h-64h-64v64v64h64h64h64v64v64v64v64v64v64v64h-64v64h-64h-64v64h64v64h64h64h64h64h64h64h64h64h64v-64h-64v-64h-64h-64h-64v-64v-64v-64v-64v-64h-64v-64v-64v-64h64h64v-64h64v-64h-64z" horiz-adv-x="704"/>
<glyph unicode="J" glyph-name="J" d="M256 0h-64h-64h-64h-64v64h-64v64v64v64v64h64h64v-64v-64v-64h64v-64h64v64v64h64v64v64v64v64v64v64v64v64h-64h-64v64h64h64h64h64h64h64h64v-64h-64h-64h-64v-64v-64v-64v-64v-64v-64v-64v-64h-64v-64v-64v-64h-64z"/>
<glyph unicode="K" glyph-name="K" d="M576 0h-64h-64v64h-64v64v64h-64v64h-64v64h-64v-64v-64v-64h64v-64v-64h-64h-64h-64h-64h-64v64h64v64h64v64v64v64v64v64h-64v64v64v64v64v64h64h64h64v-64v-64v-64v-64v-64h64v64v64h64v64h64v64h64h64h64v-64h-64v-64h-64v-64h-64v-64v-64v-64h64v-64h64v-64v-64h64 v-64h64v-64h-64z" horiz-adv-x="704"/>
<glyph unicode="L" glyph-name="L" d="M512 0h-64h-64h-64h-64h-64h-64h-64v64h-64v64v64h64v64v64v64v64v64h64v64v64h-64v64h-64v64h64h64h64h64v-64v-64v-64v-64v-64v-64v-64v-64h-64v-64v-64h64h64h64h64h64v-64h64v-64h-64z"/>
<glyph unicode="M" glyph-name="M" d="M704 0h-64v64v64v64v64v64v64h-64v-64v-64h-64v-64v-64h-64v-64h-64h-64v64v64v64h-64v64v64h-64v-64v-64v-64v-64v-64v-64h-64h-64h-64v64v64h64v64v64v64v64v64v64v64v64v64h64v64h64v-64h64v-64v-64v-64h64v-64h64v-64v-64h64v64v64v64h64v64h64v64h64v64h64h64v-64 v-64v-64v-64v-64v-64v-64v-64v-64v-64v-64h-64z" horiz-adv-x="832"/>
<glyph unicode="N" glyph-name="N" d="M0 -64v64v64v64v64h64v64v64v64v64v64h64v64v64v64v64h64h64v-64v-64h64v-64h64v-64v-64h64v-64v-64h64v64v64h64v64v64v64h64v64v64h64h64v-64v-64h-64v-64v-64v-64v-64v-64h-64v-64v-64v-64h-64v-64v-64h-64v64v64h-64v64h-64v64v64h-64v64v64h-64h-64v-64v-64v-64v-64 h-64v-64v-64v-64h-64v-64h-64z" horiz-adv-x="832"/>
<glyph unicode="O" glyph-name="O" d="M320 0h-64h-64v64h-64h-64v64h-64v64v64v64v64v64h64v64v64v64v64h64v64h64h64h64h64h64v-64h64h64v-64h64v-64v-64v-64v-64v-64v-64v-64v-64h-64v-64h-64h-64h-64v-64h-64zM384 128h64v64h64v64v64v64v64v64v64h-64v64h-64h-64h-64v-64h-64v-64v-64v-64h-64v-64v-64v-64 h64h64v-64h64h64z" horiz-adv-x="704"/>
<glyph unicode="P" glyph-name="P" d="M64 0h-64v64v64v64v64h64v64v64v64h64v64v64v64v64h64v64h64h64h64h64v-64h64h64v-64v-64h64v-64v-64h-64v-64h-64v-64h-64h-64h-64h-64h-64v-64h-64v-64v-64v-64v-64h-64zM384 448h64v64h64v64h-64v64h-64h-64h-64v-64h-64v-64v-64h64h64h64z" horiz-adv-x="704"/>
<glyph unicode="Q" glyph-name="Q" d="M640 -64h-64v64h-64v64h-64h-64v-64h-64h-64h-64v64h-64h-64v64h-64v64v64v64v64v64h64v64v64v64v64h64v64h64h64h64h64h64v-64h64h64v-64h64v-64v-64v-64v-64v-64v-64v-64v-64h-64v-64h64h64v-64v-64h-64zM320 128h64v64h-64v64h-64v64h64h64v-64h64v-64h64v64v64v64v64 v64v64h-64v64h-64h-64h-64v-64h-64v-64v-64v-64h-64v-64v-64v-64h64h64v-64h64z" horiz-adv-x="768"/>
<glyph unicode="R" glyph-name="R" d="M640 0h-64h-64v64v64v64h-64v64v64h-64h-64h-64h-64v-64v-64h-64v-64v-64v-64h-64h-64v64v64v64v64v64h64v64v64v64v64v64v64h64v64h64h64h64h64h64h64v-64h64v-64h64v-64v-64h-64v-64h-64v-64v-64h64v-64v-64h64v-64v-64h64v-64h-64zM320 448h64v64h64h64v64v64h-64h-64 h-64h-64h-64v-64v-64v-64h64h64z" horiz-adv-x="768"/>
<glyph unicode="S" glyph-name="S" d="M512 512v64h-64v64h-64h-64h-64h-64v-64v-64h64v-64h64v-64h64v-64h64v-64h64v-64v-64h-64v-64h-64v-64h-64h-64h-64h-64h-64v64h-64v64v64v64h64h64v-64v-64h64h64h64v64v64h-64v64h-64v64h-64v64h-64v64v64v64v64h64v64h64h64h64h64h64v-64h64v-64h64v-64v-64h-64z"/>
<glyph unicode="T" glyph-name="T" d="M256 0h-64h-64v64v64v64v64h64v64v64v64v64v64v64h-64h-64h-64h-64v64h64v64h64h64h64h64h64h64h64h64h64v-64v-64h-64h-64v-64h-64v-64v-64v-64v-64v-64v-64h-64v-64v-64v-64h-64z"/>
<glyph unicode="U" glyph-name="U" d="M448 0h-64h-64h-64h-64h-64v64v64h-64v64v64v64h-64v64v64v64v64v64v64h64h64v-64v-64v-64v-64v-64h64v-64v-64v-64h64v-64h64h64h64v64v64v64v64v64h64v64v64v64v64h64h64v-64v-64v-64v-64v-64v-64v-64v-64v-64h-64v-64h-64v-64h-64z" horiz-adv-x="704"/>
<glyph unicode="V" glyph-name="V" d="M256 0v64v64h-64v64h-64v64v64v64h-64v64v64v64h-64v64v64v64h64h64v-64v-64v-64h64v-64v-64h64v-64v-64v-64h64h64v64v64h64v64v64v64h64v64v64v64h64h64v-64v-64v-64v-64h-64v-64v-64h-64v-64v-64h-64v-64v-64h-64v-64h-64v-64h-64z" horiz-adv-x="704"/>
<glyph unicode="W" glyph-name="W" d="M128 0v64v64v64h-64v64v64v64h-64v64v64h-64v64v64v64v64h64h64v-64v-64v-64v-64h64v-64v-64v-64h64v-64h64v64v64v64v64h64v64v64h64v64h64v64h64v-64v-64h64v-64v-64v-64v-64v-64h64h64v64v64v64v64v64h64v64v64h64h64v-64v-64v-64v-64v-64h-64v-64h-64v-64v-64h-64 v-64v-64v-64h-64v-64h-64h-64v64v64v64v64h-64v64v64v64v64h-64v-64v-64v-64v-64h-64v-64v-64h-64v-64h-64v-64h-64z" horiz-adv-x="960"/>
<glyph unicode="X" glyph-name="X" d="M512 -64v64h-64v64h-64v64v64h-64v64h-64v-64h-64v-64h-64v-64v-64h-64h-64v64v64h64v64h64v64h64v64h64v64h-64v64v64h-64v64h-64v64h-64v64v64h64h64v-64h64v-64h64v-64h64v-64h64h64v64h64v64h64v64h64v64h64v-64h64v-64h-64v-64h-64v-64h-64v-64h-64v-64h-64v-64v-64 h64v-64h64v-64v-64v-64v-64h-64z" horiz-adv-x="832"/>
<glyph unicode="Y" glyph-name="Y" d="M256 0h-64v64v64v64h64v64v64v64h-64v64h-64v64v64h-64v64h-64v64h-64v64h64h64v-64h64v-64h64v-64h64v-64h64h64v64h64v64h64v64h64v64h64v-64h64v-64h-64v-64h-64v-64h-64v-64h-64v-64v-64h-64v-64v-64v-64v-64h-64v-64h-64z" horiz-adv-x="768"/>
<glyph unicode="Z" glyph-name="Z" d="M512 0h-64h-64h-64h-64h-64h-64h-64h-64v64v64h64v64h64v64v64h64v64v64h64v64h64v64h-64h-64h-64v64h-64v64h-64v64h64h64h64h64v-64h64h64h64h64h64v-64h64v-64h-64v-64h-64h-64v-64h-64v-64v-64h-64v-64h-64v-64h-64v-64h64h64h64h64h64h64h64h64v-64h-64h-64v-64h-64 z" horiz-adv-x="768"/>
<glyph unicode="[" glyph-name="bracketleft" d="M192 -192h-64h-64h-64h-64v64v64v64v64h64v64v64v64v64v64v64h64v64v64v64v64h-64v64h64h64h64h64h64h64v-64v-64h-64h-64h-64v-64v-64h-64v-64v-64v-64v-64v-64v-64h-64v-64v-64v-64h64h64h64v-64v-64h-64z" horiz-adv-x="448"/>
<glyph unicode="\" glyph-name="backslash" d="M320 0h-64h-64v64v64v64h-64v64v64v64h-64v64v64v64h-64v64h-64v64v64h64h64v-64v-64h64v-64h64v-64v-64v-64h64v-64v-64v-64h64v-64v-64h64v-64h-64z" horiz-adv-x="448"/>
<glyph unicode="]" glyph-name="bracketright" d="M128 -192h-64h-64v64v64h64h64v64v64h64v64v64v64h64v64v64v64v64h64v64v64h-64h-64v64h-64v64h64h64h64h64h64v-64v-64v-64v-64v-64v-64h-64v-64v-64v-64h-64v-64v-64h-64v-64v-64v-64h-64v-64h-64z" horiz-adv-x="512"/>
<glyph unicode="^" glyph-name="asciicircum" d="M0 320v64v64h64v64v64v64h64v64v64h64h64h64v-64v-64v-64h64v-64v-64h64v-64h-64h-64v64v64h-64v64v64h-64v-64v-64h-64v-64v-64h-64v-64h-64z" horiz-adv-x="512"/>
<glyph unicode="_" glyph-name="underscore" d="M448 -128h64v-64h-64h-64h-64h-64h-64h-64h-64v64h-64v64h64h64h64h64h64h64v-64h64z" horiz-adv-x="576"/>
<glyph unicode="`" glyph-name="grave" d="M256 640h64v-64h-64h-64h-64v64h-64h-64v64v64h64h64v-64h64v-64h64z" horiz-adv-x="384"/>
<glyph unicode="a" glyph-name="a" d="M448 0h-64v64h-64h-64v-64h-64h-64v64h-64v64v64h64v64h64v64h64h64v64v64h-64h-64v-64h-64v-64h-64h-64v64v64h64v64h64v64h64h64h64h64v-64h64v-64v-64v-64v-64h64v-64v-64v-64v-64h-64zM256 128h64v64v64h-64v-64h-64v-64h64z" horiz-adv-x="576"/>
<glyph unicode="b" glyph-name="b" d="M320 -64h-64h-64h-64v64h-64v64v64v64v64v64h-64v64v64v64v64v64v64v64h64v-64v-64h64v-64v-64v-64h64v-64h64h64h64v-64h64v-64h64v-64v-64v-64h-64v-64h-64v-64h-64zM320 64h64v64v64v64h-64h-64h-64v-64v-64v-64h64h64z" horiz-adv-x="576"/>
<glyph unicode="c" glyph-name="c" d="M192 0h-64h-64v64h-64v64v64v64v64v64v64h64v64h64h64h64h64v-64h64v-64v-64h-64h-64v64h-64v-64h-64v-64v-64v-64h64h64v64h64h64v-64v-64h-64h-64v-64h-64z" horiz-adv-x="448"/>
<glyph unicode="d" glyph-name="d" d="M320 0h-64h-64h-64h-64v64h-64v64v64v64v64h64v64h64v64h64h64v-64h64v64v64h64v64v64v64v64h64h64v-64v-64v-64v-64v-64v-64h-64v-64v-64v-64v-64v-64h-64v-64h-64zM256 128h64v64v64h-64v64h-64v-64h-64v-64v-64h64h64z" horiz-adv-x="576"/>
<glyph unicode="e" glyph-name="e" d="M320 0h-64h-64h-64v64h-64v64v64h-64v64v64v64v64h64v64h64v64h64h64h64h64v-64h64v-64h64v-64v-64h-64v-64h-64h-64v-64h-64h-64v-64h64h64h64v64h64h64v-64v-64h-64h-64v-64h-64zM192 320h64v64h64h64v64h-64h-64h-64v-64h-64v-64h64z" horiz-adv-x="576"/>
<glyph unicode="f" glyph-name="f" d="M192 0h-64h-64v64v64v64v64h64v64v64h-64v64h-64v64h64h64v64v64v64h64v64h64h64h64v-64h64v-64v-64h-64h-64v64h-64v-64v-64h64h64v-64v-64h-64h-64v-64v-64v-64v-64v-64v-64h-64z" horiz-adv-x="512"/>
<glyph unicode="g" glyph-name="g" d="M320 -256h-64h-64h-64v64h-64h-64v64v64v64h64h64v-64h64v-64h64h64v64v64h64v64h-64h-64h-64h-64v64h-64v64h-64v64v64v64v64h64v64h64v64h64h64h64v-64h64v64h64h64h64v-64v-64h-64v-64v-64v-64v-64v-64v-64v-64v-64v-64h-64v-64h-64v-64h-64zM320 192h64v64v64v64h-64 v64h-64v-64h-64h-64v-64v-64h64v-64h64h64z"/>
<glyph unicode="h" glyph-name="h" d="M512 0h-64v64v64v64v64h-64v64h-64v-64h-64v-64v-64h-64v-64v-64h-64h-64h-64v64v64v64h64v64v64v64v64v64v64v64v64v64h64h64h64v-64v-64v-64h-64v-64v-64v-64h64v64h64h64h64v-64h64v-64h64v-64h64v-64v-64v-64h-64v-64h-64z" horiz-adv-x="704"/>
<glyph unicode="i" glyph-name="i" d="M0 0v64v64v64v64h64v64v64h64h64v-64v-64v-64h-64v-64v-64h-64v-64h-64zM64 448h-64v64v64v64h64h64h64v-64v-64h-64v-64h-64z" horiz-adv-x="256"/>
<glyph unicode="j" glyph-name="j" d="M64 -192v64h-64v64h-64v64v64v64h64h64v-64v-64h64h64v64v64v64v64v64v64v64v64h64v64h64v-64v-64v-64v-64v-64v-64v-64v-64v-64h-64v-64v-64h-64h-64v-64h-64zM128 576h-64v64v64v64h64h64h64v-64v-64h-64v-64h-64z" horiz-adv-x="384"/>
<glyph unicode="k" glyph-name="k" d="M448 0h-64v64h-64v64h-64v64h-64v-64v-64v-64h-64h-64h-64v64h64v64v64v64v64h-64v64v64v64v64v64v64v64h64h64v-64v-64v-64v-64v-64h64v64h64v64h64v64h64h64v-64v-64h-64v-64h-64v-64h-64v-64h64v-64h64v-64h64v-64h64v-64v-64h-64z" horiz-adv-x="576"/>
<glyph unicode="l" glyph-name="l" d="M192 0h-64h-64h-64v64v64v64v64v64v64v64h64v64v64v64h64v64h64v-64v-64v-64v-64v-64v-64h-64v-64v-64v-64h64v-64h64v-64h-64z" horiz-adv-x="320"/>
<glyph unicode="m" glyph-name="m" d="M384 -64v64h-64v64v64v64v64v64h64v64h-64h-64h-64v-64v-64v-64v-64v-64h-64v-64h-64v64v64v64v64v64v64v64h-64v64v64v64h64v-64h64v-64h64v64h64h64v-64h64h64v-64v-64h64v64h64h64h64v-64h64v-64v-64h64v-64v-64h-64v-64v-64v-64h-64h-64v64v64v64v64v64v64h-64h-64 v-64h-64v-64v-64v-64v-64v-64h-64z" horiz-adv-x="896"/>
<glyph unicode="n" glyph-name="n" d="M448 -64v64v64v64v64v64v64h-64v64h-64h-64v-64h-64v-64v-64h-64v-64v-64v-64v-64h-64v64h-64v64v64v64h64v64v64v64v64v64v64h64v64h64v-64v-64v-64h64v64h64h64h64v-64h64v-64h64v-64v-64v-64v-64v-64v-64h-64v-64h-64z"/>
<glyph unicode="o" glyph-name="o" d="M384 64h-64h-64h-64h-64h-64v64h-64v64v64v64v64h64v64h64v64h64h64h64h64v-64h64v-64h64v-64v-64v-64v-64h-64v-64h-64zM320 192h64v64v64v64h-64h-64h-64v-64h-64v-64v-64h64h64h64z" horiz-adv-x="576"/>
<glyph unicode="p" glyph-name="p" d="M64 -256h-64v64h64v64v64v64v64v64v64v64v64v64h-64v64v64v64h64h64v-64h64v64h64h64h64v-64h64v-64h64v-64h64v-64v-64v-64h-64v-64h-64v-64h-64h-64h-64h-64v-64v-64v-64v-64h-64v-64h-64zM320 192h64v64h64v64h-64v64h-64h-64h-64v-64v-64v-64h64h64z"/>
<glyph unicode="q" glyph-name="q" d="M640 -256h-64h-64h-64v64h-64v64v64v64v64h-64v-64h-64h-64h-64v64h-64v64h-64v64v64v64v64h64v64h64v64h64h64h64h64v-64v-64h64v64h64h64v-64v-64h-64v-64v-64v-64v-64v-64v-64v-64h64h64v64v64h64h64v-64v-64h-64v-64v-64h-64zM256 128h64v64h64v64v64h-64v64h-64h-64 v-64h-64v-64v-64v-64h64h64z" horiz-adv-x="832"/>
<glyph unicode="r" glyph-name="r" d="M128 0h-64v64v64v64v64h-64v64v64v64v64h64v64h64v-64v-64h64h64h64v-64h64v-64v-64h-64h-64v64h-64v-64v-64v-64v-64v-64h-64z" horiz-adv-x="448"/>
<glyph unicode="s" glyph-name="s" d="M256 -64h-64h-64v64h-64v64h-64v64v64h64v-64h64h64v-64h64v64v64h-64h-64v64h-64v64h-64v64v64h64v64h64h64v64h64h64h64h64v-64v-64h64v-64v-64h-64h-64v64v64h-64h-64v-64h-64v-64h64v-64h64h64v-64h64v-64v-64h-64v-64h-64v-64h-64z" horiz-adv-x="576"/>
<glyph unicode="t" glyph-name="t" d="M192 0h-64h-64v64v64h64v64v64v64v64h-64h-64h-64v64v64h64h64v64v64v64h-64v64h64h64h64v-64v-64v-64v-64h64h64v64h64h64v-64v-64h-64v-64h-64h-64v-64v-64v-64v-64v-64v-64h-64z" horiz-adv-x="512"/>
<glyph unicode="u" glyph-name="u" d="M512 -64h-64v64h-64v64h-64v-64h-64h-64h-64h-64v64v64h-64v64v64v64v64v64h64v64h64v-64v-64v-64v-64v-64v-64h64h64v64h64v64v64v64v64h64h64v-64v-64v-64v-64v-64h64v-64h64v-64v-64h-64z"/>
<glyph unicode="v" glyph-name="v" d="M128 0v64h-64v64v64h-64v64v64v64h-64v64v64h64h64v-64h64v-64v-64v-64h64h64v64v64v64h64v64h64h64h64v-64h-64v-64v-64h-64v-64v-64h-64v-64h-64v-64h-64v-64h-64z" horiz-adv-x="576"/>
<glyph unicode="w" glyph-name="w" d="M576 0h-64h-64v64v64v64h-64v64h-64v-64v-64h-64v-64h-64v-64h-64h-64v64v64v64v64h-64v64h-64v64v64v64h64h64v-64v-64h64v-64v-64v-64h64v64v64h64v64h64v64h64h64v-64v-64v-64h64v-64v-64h64v64v64v64h64v64v64h64v64v64h64h64v-64v-64v-64h-64v-64v-64h-64v-64v-64 h-64v-64v-64h-64z" horiz-adv-x="896"/>
<glyph unicode="x" glyph-name="x" d="M384 0h-64v64h-64v64v64h-64v-64h-64v-64v-64h-64h-64v64v64h64v64h64v64v64h-64v64h-64v64v64h64h64v-64v-64h64v-64h64v64v64h64v64h64h64v-64v-64h-64v-64h-64v-64v-64h64v-64h64v-64v-64h-64z" horiz-adv-x="512"/>
<glyph unicode="y" glyph-name="y" d="M64 -256h-64v64h64v64v64h64v64h64v64h-64v64h-64v64v64v64h-64v64h64h64h64v-64v-64v-64h64h64v64v64v64h64v64h64v-64v-64v-64v-64v-64h-64v-64v-64h-64v-64h-64v-64h-64v-64h-64v-64h-64z" horiz-adv-x="512"/>
<glyph unicode="z" glyph-name="z" d="M448 0h-64h-64h-64h-64h-64h-64v64h-64v64v64h64v64h64v64h64h64v64h64v64h-64h-64h-64h-64h-64v64h64v64h64h64h64h64h64h64h64v-64v-64h-64v-64h-64v-64h-64v-64h-64v-64h-64h-64v-64h64h64h64v64h64h64h64v-64v-64v-64h-64z" horiz-adv-x="576"/>
<glyph unicode="{" glyph-name="braceleft" d="M256 -192h-64v64h-64v64v64v64v64h-64v64v64h-64v64v64h64v64h64v64v64v64v64h64v64h64h64v-64v-64h-64v-64v-64v-64v-64h-64v-64h-64v-64v-64h64h64v-64v-64v-64v-64h64v-64v-64h-64z" horiz-adv-x="384"/>
<glyph unicode="|" glyph-name="bar" d="M64 -192h-64v64v64v64v64v64h64v64v64v64v64v64v64v64h64v64v64v64h64h64v-64v-64v-64v-64h-64v-64v-64v-64v-64v-64v-64v-64h-64v-64v-64v-64v-64h-64z" horiz-adv-x="320"/>
<glyph unicode="}" glyph-name="braceright" d="M128 -192h-64h-64v64h64v64v64h64v64v64h64v64v64v64h-64v64v64v64v64h-64v64h-64v64v64h64h64h64v-64v-64v-64v-64h64v-64v-64h64v-64h64v-64h-64v-64h-64v-64v-64v-64h-64v-64v-64v-64h-64z" horiz-adv-x="448"/>
<glyph unicode="~" glyph-name="asciitilde" d="M0 256v64v64h64v64h64v64h64h64v-64h64v-64h64h64v64h64v64h64v-64v-64h-64v-64h-64v-64h-64h-64v64h-64v64h-64h-64v-64h-64v-64h-64z"/>
<glyph unicode=" " glyph-name="uni00A0" horiz-adv-x="320"/>
<glyph unicode="¡" glyph-name="exclamdown" d="M64 -192h-64v64v64v64v64v64v64h64v64v64v64h64h64v-64v-64v-64v-64v-64h-64v-64v-64v-64v-64h-64zM128 512h-64v64v64h64v64h64v-64h64v-64h-64v-64h-64z" horiz-adv-x="320"/>
<glyph unicode="¢" glyph-name="cent" d="M448 320v64h-64v64h-64v-64v-64v-64v-64v-64h64v64v64h64h64v-64v-64h-64v-64h-64v-64h-64h-64v-64v-64h-64h-64v64v64v64h-64h-64v64h-64v64v64v64v64h64v64v64h64v64h64h64h64v64v64h64h64v-64v-64h64v-64h64v-64v-64v-64h-64zM192 128v64v64v64v64v64h-64v-64h-64v-64 v-64v-64h64v-64h64z" horiz-adv-x="576"/>
<glyph unicode="£" glyph-name="sterling" d="M0 0v64v64h64v64v64h-64h-64v64v64h64v64v64v64v64h64v64v64h64h64h64h64h64h64v-64h64v-64v-64h-64h-64v64h-64h-64v64h-64v-64h-64v-64v-64v-64h64h64h64h64h64v-64h64v-64h-64h-64h-64h-64h-64v-64v-64h64h64h64v-64h64h64v-64h64v-64h64v-64h-64h-64h-64v64h-64h-64 v64h-64h-64h-64h-64v-64h-64z" horiz-adv-x="704"/>
<glyph unicode="¤" glyph-name="currency" d="M512 64h-64v64h-64v64h-64h-64h-64h-64v-64h-64h-64v64v64h64v64v64v64v64v64h-64v64h64h64h64v-64h64h64h64v64h64h64v-64v-64h-64v-64h64v-64v-64h-64v-64h64v-64h64v-64v-64h-64zM320 320h64v64v64h-64h-64h-64v-64v-64h64h64z"/>
<glyph unicode="¥" glyph-name="yen" d="M256 -64h-64v64v64h-64h-64h-64v64h64v64h64h64v64h-64h-64h-64v64v64h64h64h64v64h-64v64h-64v64v64h-64v64v64h64v-64h64v-64h64v-64h64v-64v-64h64v64v64h64v64v64h64v64h64h64v-64v-64h-64v-64v-64h-64v-64h-64v-64h64v-64h64h64v-64h-64h-64h-64h-64v-64h64h64v-64 h64h64v-64h-64h-64h-64h-64v-64v-64h-64z"/>
<glyph unicode="¦" glyph-name="brokenbar" d="M0 -192v64v64v64v64v64v64h64h64v-64v-64v-64v-64v-64h-64v-64h-64zM64 320v64h-64v64v64v64v64h64v64v64h64h64v-64v-64v-64h-64v-64v-64v-64v-64h-64z" horiz-adv-x="256"/>
<glyph unicode="§" glyph-name="section" d="M320 -256h-64h-64h-64v64h-64v64h-64v64h-64v64h64v64h64v-64h64v-64h64v-64h64v64h64v64h-64v64h-64h-64v64h-64v64h-64v64v64v64h64h64v64h-64v64v64h-64v64v64h64v64h64h64h64h64h64v-64h64v-64h64v-64v-64h-64h-64v64h-64v64h-64h-64v-64v-64h64h64v-64h64v-64h64 v-64h64v-64v-64v-64h-64v-64h-64v-64h64v-64v-64v-64h-64v-64h-64zM320 128h64v64v64h-64v64h-64v64h-64v-64h-64v-64h64v-64h64v-64h64z" horiz-adv-x="576"/>
<glyph unicode="¨" glyph-name="dieresis" d="M64 576v64h-64v64h64v64h64v-64v-64v-64h-64zM256 576h-64v64v64h64v64h64h64v-64h-64v-64v-64h-64z" horiz-adv-x="448"/>
<glyph unicode="©" glyph-name="copyright" d="M448 384v64h-64h-64v-64v-64v-64h64v64h64h64v-64v-64h-64v-64h-64h-64h-64v64h-64v64v64v64v64v64h64v64h64h64h64v-64h64v-64v-64h-64zM512 -64h-64h-64h-64h-64h-64v64h-64h-64v64h-64v64v64h-64v64v64v64v64v64h64v64v64h64v64h64v64h64h64h64h64h64h64v-64h64h64 v-64h64v-64v-64h64v-64v-64v-64v-64v-64h-64v-64v-64h-64v-64h-64v-64h-64zM448 64h64v64h64v64v64h64v64v64v64v64h-64v64h-64v64h-64h-64h-64h-64h-64v-64h-64v-64h-64v-64v-64v-64v-64h64v-64v-64h64v-64h64h64h64h64z" horiz-adv-x="832"/>
</font>
</defs>
</svg>
