<?xml version="1.0" standalone="no"?>
<!DOCTYPE svg PUBLIC "-//W3C//DTD SVG 1.1//EN" "http://www.w3.org/Graphics/SVG/1.1/DTD/svg11.dtd" >
<svg xmlns="http://www.w3.org/2000/svg" xmlns:xlink="http://www.w3.org/1999/xlink" version="1.1">
<metadata></metadata>
<defs>
<font id="basichandwritingmedium" horiz-adv-x="1280" >
<font-face units-per-em="2048" ascent="1536" descent="-512" />
<missing-glyph horiz-adv-x="640" />
<glyph horiz-adv-x="0" />
<glyph unicode="&#xd;" horiz-adv-x="682" />
<glyph unicode=" "  horiz-adv-x="640" />
<glyph unicode="&#x09;" horiz-adv-x="640" />
<glyph unicode="&#xa0;" horiz-adv-x="640" />
<glyph unicode="!" horiz-adv-x="768" d="M-128 128v128h128h128h128v-128v-128h128v-128h-128h-128h-128v128v128h-128zM0 512v128v128v128v128v128h128v128v128v128h128h128h128v-128h128v-128h-128v-128v-128h-128v-128v-128v-128h-128v-128v-128h-128v128h-128z" />
<glyph unicode="&#x22;" horiz-adv-x="896" d="M-128 1280v128v128h128h128v-128h128v-128v-128v-128v-128h-128v128h-128v128v128h-128zM384 1024v128v128v128v128h128h128v-128v-128h128v-128v-128v-128h-128h-128v128h-128z" />
<glyph unicode="#" horiz-adv-x="1536" d="M-256 512v128v128h128h128h128v-128h128v128v128h-128h-128h-128v128h-128v128h128v128h128v-128h128h128h128v128v128h128v128h128h128v-128v-128h-128v-128v-128h128v128h128v128v128h128v128h128v-128v-128v-128h-128v-128h128v-128h128h128v-128v-128h-128h-128h-128 v128h-128v-128v-128h128v-128h128h128v-128v-128h-128h-128h-128v128h-128v-128v-128h-128h-128h-128v128h128v128v128h-128h-128v-128v-128h-128v-128h-128h-128v128v128h128v128h128v128h-128h-128h-128zM512 512h128v128v128h-128v-128v-128z" />
<glyph unicode="$" horiz-adv-x="1536" d="M-128 128v128v128v128h128v-128h128v-128h128v128h128v128v128v128h-128v128h-128v128v128v128h128v128h128h128h128h128v128h128h128h128h128v-128h-128v-128v-128h128h128v-128v-128v-128h-128h-128v128h-128v128h-128v-128v-128h-128v-128h128v-128h128v-128h128v-128 h128v-128v-128v-128h-128h-128v-128h-128h-128h-128h-128v128h-128h-128v-128v-128h-128h-128v128v128v128v128h-128zM384 1024h128v-128h128v128v128h-128h-128v-128zM512 0h128v128h128h128v128v128h-128v128h-128v-128v-128h-128v-128v-128z" />
<glyph unicode="%" horiz-adv-x="1920" d="M0 896v128v128v128v128h128v128h128h128h128h128v-128h128v-128v-128h-128v-128v-128h-128v-128h-128v-128h-128h-128v128v128h-128zM256 0v128h128v128v128h128v128h128v128v128h128v128h128v128h128v128h128v128v128h128v128h128h128h128v-128h-128v-128h-128v-128 h-128v-128v-128h-128v-128h-128v-128h-128v-128h-128v-128v-128h-128v-128h-128v-128h-128h-128zM256 896h128v128h128v128v128h-128h-128v-128v-128v-128zM1024 128v128v128h128v128v128h128v128v128h128h128v-128h128h128v-128v-128v-128v-128v-128h-128v-128h-128h-128 h-128h-128v128h-128zM1280 256h128h128v128v128v128h-128v-128h-128v-128v-128z" />
<glyph unicode="&#x26;" horiz-adv-x="1664" d="M0 0v128v128v128v128v128h128v128h128v128h-128v128h-128v128v128h128v128h128v128h128h128h128h128v-128h128v-128v-128v-128h-128v-128h-128v-128h128v-128h128v-128h128v128h128h128v-128v-128h-128v-128h128v-128h128v-128h128v-128h-128h-128h-128v128h-128v128 h-128v-128v-128h-128h-128h-128h-128h-128h-128v128h-128zM256 256h128v-128h128h128v128h128v128h-128v128h-128v128h-128v-128h-128v-128v-128zM256 1024h128h128v128h128v128h-128h-128v-128h-128v-128z" />
<glyph unicode="'" horiz-adv-x="512" d="M0 896v128v128v128v128h128v128h128h128v-128v-128v-128h-128v-128v-128h128v-128h-128h-128v128h-128z" />
<glyph unicode="(" horiz-adv-x="896" d="M0 0v128v128v128v128v128v128v128v128h128v128h128v128h128v128h128v128h128h128v-128v-128h-128v-128h-128h-128v-128v-128h-128v-128v-128v-128v-128v-128v-128v-128h128v-128h128v-128h128v-128h-128h-128h-128v128h-128v128h-128v128z" />
<glyph unicode=")" horiz-adv-x="768" d="M0 -128h128v128h128v128v128h128v128v128v128v128v128v128v128h-128v128h-128v128v128h128h128v-128h128v-128h128v-128v-128v-128v-128v-128v-128v-128v-128v-128h-128v-128h-128v-128h-128v-128v-128h-128h-128v128v128z" />
<glyph unicode="*" horiz-adv-x="1024" d="M-256 1408v128h128h128v-128h128v-128h128v128h128v128h128h128v-128v-128h-128v-128h128h128h128v-128v-128h-128h-128v-128v-128h-128h-128v128v128h-128v-128h-128v-128h-128h-128v128h128v128v128h128v128h-128h-128v128v128h-128z" />
<glyph unicode="+" d="M128 768v128h128h128h128v128v128h128v128h128v-128v-128v-128h128h128v-128h128v-128h-128h-128h-128h-128v-128v-128v-128h-128h-128v128v128v128h-128v128h-128z" />
<glyph unicode="," horiz-adv-x="640" d="M128 0h128v128v128h-128v128h128h128h128v-128v-128v-128h-128v-128h-128h-128v128z" />
<glyph unicode="-" horiz-adv-x="896" d="M0 512v128h128v128h128h128h128h128h128v-128h-128v-128h-128h-128h-128h-128h-128z" />
<glyph unicode="." horiz-adv-x="640" d="M128 0v128v128h128v128h128h128v-128v-128h-128v-128h-128h-128z" />
<glyph unicode="/" horiz-adv-x="768" d="M-128 0v128v128v128v128h128v128h128v128v128v128h128v128v128h128v128v128h128h128v-128v-128v-128h-128v-128v-128h-128v-128v-128v-128h-128v-128v-128h-128v-128v-128h-128v-128h-128v128z" />
<glyph unicode="0" horiz-adv-x="1408" d="M-128 512v128v128v128h128v128v128h128v128v128h128v128h128h128h128h128h128h128v-128h128v-128v-128v-128h128v-128v-128v-128v-128h-128v-128v-128h-128v-128v-128h-128v-128h-128h-128h-128h-128v128h-128h-128v128v128h-128v128v128h-128zM256 256h128h128v-128h128 v128h128v128h128v128v128h128v128h-128h-128v-128h-128h-128h-128v-128h-128v-128v-128zM256 896h128h128h128v128h128h128v128h-128v128h-128h-128h-128v-128h-128v-128v-128z" />
<glyph unicode="1" horiz-adv-x="1152" d="M256 0v128h128v128v128h128v128v128v128v128v128v128h-128v-128h-128v128v128h128v128h128h128v128h128h128v-128v-128v-128v-128h-128v-128v-128v-128v-128v-128v-128h128v-128h128v-128h-128h-128h-128h-128h-128h-128z" />
<glyph unicode="2" d="M0 0v128v128h128v128v128h128v128h128h128v128h128v128h128v128h128v128h-128h-128v128h-128h-128v-128h-128v-128h-128v-128h-128v128v128v128h128v128h128v128h128h128h128h128h128v-128h128v-128h128v-128v-128v-128h-128v-128h-128v-128h-128v-128h-128v-128h-128 h-128v-128h128h128h128h128h128v-128h128v-128h-128h-128h-128h-128h-128h-128h-128h-128h-128z" />
<glyph unicode="3" horiz-adv-x="1152" d="M0 128v128v128v128h128v-128h128h128v-128h128h128h128v128v128h-128v128h-128v128v128h128v128h128v128v128h-128h-128v-128h-128v-128h-128h-128v128v128h128v128h128v128h128h128h128v-128h128h128v-128v-128v-128v-128h-128v-128v-128h128v-128v-128v-128v-128h-128 v-128h-128h-128h-128h-128h-128v128h-128h-128z" />
<glyph unicode="4" d="M0 640v128v128v128v128v128h128v128v128h128h128v-128v-128h-128v-128v-128v-128h128h128h128h128v128v128v128v128h128v128h128h128v-128v-128v-128h-128v-128v-128v-128h-128v-128v-128v-128v-128v-128v-128h-128v-128h-128h-128v128v128v128v128v128h128v128h-128 h-128h-128h-128h-128z" />
<glyph unicode="5" horiz-adv-x="1152" d="M0 128v128v128h128v128h128v-128v-128h128h128h128v128v128v128h-128h-128h-128h-128v128h-128v128v128v128v128h128v128v128h128h128h128h128h128h128h128v-128h-128v-128h-128h-128h-128h-128v-128v-128h-128v-128h128h128h128v-128h128h128v-128h128v-128v-128h-128 v-128v-128h-128h-128v-128h-128h-128h-128h-128v128h-128z" />
<glyph unicode="6" horiz-adv-x="1152" d="M0 128v128v128v128v128v128v128v128h128v128h128v128v128h128v128h128h128h128v-128h-128v-128h-128v-128h-128v-128h-128v-128v-128h128v128h128h128h128v-128h128v-128h128v-128v-128v-128h-128v-128h-128v-128h-128h-128h-128h-128v128h-128h-128zM384 256h128h128 v128h128v128v128h-128h-128v-128h-128v-128v-128z" />
<glyph unicode="7" d="M0 1280v128h128v128h128h128h128h128h128h128h128v-128h128v-128h-128v-128v-128h-128v-128h128h128v-128h-128v-128h-128h-128v-128v-128h-128v-128v-128v-128h-128h-128h-128v128v128h128v128v128v128h-128h-128v128h128v128h128h128v128h128v128h128v128h-128h-128 h-128h-128h-128h-128z" />
<glyph unicode="8" horiz-adv-x="1152" d="M0 128v128v128h128v128h128v128h128v128h-128v128h-128v128v128v128v128h128v128h128h128h128h128v-128h128v-128v-128h128v-128v-128v-128h-128v-128h128v-128v-128v-128v-128h-128v-128h-128v-128h-128h-128h-128h-128h-128v128v128h-128zM256 128h128h128h128v128h128 v128v128h-128v128h-128v-128h-128v-128h-128v-128v-128zM384 896h128h128h128v128v128v128h-128h-128h-128v-128v-128v-128z" />
<glyph unicode="9" d="M0 896v128v128h128v128v128h128v128h128h128h128h128h128v-128h128v-128v-128h128v-128v-128v-128h-128v-128v-128h-128v-128h-128v-128v-128v-128h-128h-128h-128h-128v128h128v128v128h128v128h128v128h-128h-128h-128v128h-128v128h-128zM384 896h128h128h128v128h128 v128h-128v128h-128h-128h-128v-128v-128v-128z" />
<glyph unicode=":" horiz-adv-x="512" d="M0 0v128v128h128v128h128h128v-128v-128h-128v-128h-128h-128zM0 768v128v128h128v128h128h128v-128v-128h-128v-128h-128h-128z" />
<glyph unicode=";" horiz-adv-x="512" d="M0 0h128v128v128h-128v128h128h128h128v-128v-128v-128h-128v-128h-128h-128v128zM0 768v128v128h128v128h128h128v-128v-128h-128v-128h-128h-128z" />
<glyph unicode="&#x3c;" horiz-adv-x="1408" d="M-128 768v128h128h128h128v128h128h128v128h128h128v128h128h128h128v-128h-128v-128h-128h-128v-128h-128h-128v-128v-128h128h128v-128h128h128h128v-128h128v-128v-128h-128h-128v128h-128h-128v128h-128h-128v128h-128h-128v128h-128h-128v128h-128z" />
<glyph unicode="=" horiz-adv-x="1408" d="M128 896v128h128h128h128h128h128h128h128v-128h128v-128h-128h-128h-128h-128h-128h-128h-128v128h-128zM256 384v128v128h128h128h128h128v-128h128h128h128v-128h128v-128h-128h-128h-128h-128h-128v128h-128h-128h-128z" />
<glyph unicode="&#x3e;" d="M128 256v128v128h128h128h128v128h128h128v128h-128v128h-128v128h-128h-128v128h-128v128h128h128h128v-128h128v-128h128h128v-128h128h128v-128v-128h-128v-128h-128h-128h-128v-128h-128h-128v-128h-128h-128z" />
<glyph unicode="?" d="M128 896v128v128v128h128v128h128v128h128h128h128h128h128v-128h128v-128v-128v-128v-128h-128v-128h-128v-128v-128v-128h-128h-128v128v128v128h128v128h128v128v128h-128v128h-128h-128h-128v-128v-128v-128v-128h-128v128h-128zM768 0v128v128h128h128v-128v-128 h-128h-128z" />
<glyph unicode="@" horiz-adv-x="1920" d="M-128 0v128v128v128v128v128h128v128v128v128v128h128v128h128v128h128h128v128h128h128h128h128h128h128h128v-128h128v-128h128v-128v-128h128v-128v-128v-128v-128v-128h-128v-128v-128h-128h-128v-128h-128h-128h-128v128h-128v-128h-128h-128v128h-128h-128v128v128 v128v128v128h128v128v128h128h128v128h128h128h128v-128h128v-128v-128v-128v-128h-128v-128v-128h128h128v128v128v128h128v128v128v128h-128v128h-128v128h-128h-128h-128h-128h-128h-128v-128h-128v-128h-128v-128v-128v-128h-128v-128v-128v-128v-128v-128h128v-128h128 v-128h128h128h128h128h128h128h128h128v128h128v128h128v-128v-128h-128v-128h-128v-128h-128h-128h-128h-128h-128h-128h-128h-128v128h-128h-128v128v128h-128v128h-128zM640 384h128v-128h128v128h128v128v128v128v128h-128h-128v-128h-128v-128v-128v-128z" />
<glyph unicode="A" horiz-adv-x="1536" d="M0 0v128v128h128v128v128h128v128v128h128v128v128v128h128v128v128h128v128h128v-128v-128v-128h128v-128v-128h128v-128v-128h128v-128h128v-128v-128h128v-128v-128h-128h-128v128h-128v128h-128v128h-128h-128h-128h-128h-128v-128v-128v-128h-128h-128zM512 512h128 v128h128v128h-128h-128v-128v-128z" />
<glyph unicode="B" horiz-adv-x="1408" d="M0 0v128v128v128v128v128h128v128v128v128v128v128v128h128v128h128h128h128h128h128h128v-128h128v-128v-128v-128h-128v-128h-128v-128h-128v-128h128h128v-128h128v-128h128v-128v-128v-128h-128v-128h-128h-128h-128h-128h-128h-128h-128v128h-128h-128zM384 128h128 h128h128h128v128v128h-128v128h-128v128h-128h-128v-128v-128v-128v-128zM384 896h128h128h128v128h128v128h-128v128h-128h-128h-128v-128v-128v-128z" />
<glyph unicode="C" d="M0 256v128v128v128v128v128v128v128h128v128v128h128v128h128h128h128h128h128v-128h128v-128h128v-128v-128h-128v128h-128v128h-128h-128h-128v-128h-128v-128v-128h-128v-128v-128v-128v-128h128h128v-128h128h128v128h128h128v128h128v-128v-128h-128v-128h-128v-128 h-128h-128h-128h-128h-128v128h-128v128h-128z" />
<glyph unicode="D" d="M0 0v128v128v128v128v128v128h128v128v128v128v128v128h128v128h128h128h128v-128h128h128v-128h128v-128h128v-128v-128v-128v-128v-128v-128h-128v-128h-128v-128h-128v-128h-128h-128h-128h-128h-128h-128zM256 256h128h128v128h128h128v128h128v128v128v128v128h-128 v128h-128h-128v128h-128v-128v-128v-128v-128v-128h-128v-128v-128v-128z" />
<glyph unicode="E" d="M0 640v128v128v128v128v128v128v128h128h128h128h128h128h128h128v-128v-128h-128h-128h-128h-128h-128v-128v-128v-128h128h128h128h128h128v-128v-128h-128h-128h-128h-128v-128v-128v-128h128v128h128h128h128h128h128v-128v-128h-128h-128v-128h-128h-128h-128h-128 h-128h-128v128v128v128v128v128h-128z" />
<glyph unicode="F" d="M0 0v128v128v128v128v128v128v128v128h128v128v128v128h128v128h128h128h128h128h128h128h128v-128h-128v-128h-128h-128v-128h-128h-128h-128v-128v-128h128h128h128h128v-128h-128v-128h-128h-128h-128h-128v-128v-128v-128v-128v-128h-128h-128z" />
<glyph unicode="G" horiz-adv-x="1536" d="M0 128v128v128v128v128v128v128v128h128v128v128h128v128h128v128h128h128h128h128h128h128v-128v-128h128v-128h128v-128h-128h-128h-128v128h-128v128h-128h-128h-128v-128h-128v-128h-128v-128v-128v-128v-128v-128v-128h128h128h128h128h128h128v128v128h-128h-128 h-128v128h-128v128h128v128h128v-128h128h128h128h128v-128v-128v-128v-128v-128h-128v-128h-128h-128h-128v-128h-128h-128h-128h-128v128h-128v128h-128z" />
<glyph unicode="H" horiz-adv-x="1408" d="M0 896v128v128v128v128v128h128h128h128v-128v-128v-128v-128h128h128v-128h128h128v128v128v128h128v128v128h128h128v-128v-128v-128v-128h-128v-128v-128v-128v-128v-128v-128v-128h-128v-128v-128h-128h-128v128v128v128h128v128v128v128h-128h-128h-128h-128v-128 v-128v-128v-128h-128v-128h-128v128v128v128v128v128v128v128h-128z" />
<glyph unicode="I" horiz-adv-x="1408" d="M0 0v128v128h128h128h128v128v128v128v128v128v128v128h-128v128h-128h-128v128h128v128h128h128h128h128h128h128h128h128h128v-128h-128v-128h-128h-128h-128v-128v-128v-128v-128v-128h-128v-128v-128v-128h128h128v-128h128v-128h-128h-128h-128h-128h-128h-128h-128 h-128z" />
<glyph unicode="J" d="M-128 128v128v128v128v128h128h128v-128v-128v-128h128v-128h128v128v128h128v128v128v128v128v128v128v128v128h-128h-128v128h128h128h128h128h128h128h128v-128h-128h-128h-128v-128v-128v-128v-128v-128v-128v-128v-128h-128v-128v-128v-128h-128h-128h-128h-128 h-128v128h-128z" />
<glyph unicode="K" horiz-adv-x="1408" d="M-128 0v128h128v128h128v128v128v128v128v128h-128v128v128v128v128v128h128h128h128v-128v-128v-128v-128v-128h128v128v128h128v128h128v128h128h128h128v-128h-128v-128h-128v-128h-128v-128v-128v-128h128v-128h128v-128v-128h128v-128h128v-128h-128h-128h-128v128 h-128v128v128h-128v128h-128v128h-128v-128v-128v-128h128v-128v-128h-128h-128h-128h-128h-128z" />
<glyph unicode="L" d="M0 128v128v128h128v128v128v128v128v128h128v128v128h-128v128h-128v128h128h128h128h128v-128v-128v-128v-128v-128v-128v-128v-128h-128v-128v-128h128h128h128h128h128v-128h128v-128h-128h-128h-128h-128h-128h-128h-128h-128v128h-128z" />
<glyph unicode="M" horiz-adv-x="1664" d="M0 0v128v128h128v128v128v128v128v128v128v128v128v128h128v128h128v-128h128v-128v-128v-128h128v-128h128v-128v-128h128v128v128v128h128v128h128v128h128v128h128h128v-128v-128v-128v-128v-128v-128v-128v-128v-128v-128v-128h-128h-128v128v128v128v128v128v128 h-128v-128v-128h-128v-128v-128h-128v-128h-128h-128v128v128v128h-128v128v128h-128v-128v-128v-128v-128v-128v-128h-128h-128h-128z" />
<glyph unicode="N" horiz-adv-x="1664" d="M0 0v128v128v128h128v128v128v128v128v128h128v128v128v128v128h128h128v-128v-128h128v-128h128v-128v-128h128v-128v-128h128v128v128h128v128v128v128h128v128v128h128h128v-128v-128h-128v-128v-128v-128v-128v-128h-128v-128v-128v-128h-128v-128v-128h-128v128v128 h-128v128h-128v128v128h-128v128v128h-128h-128v-128v-128v-128v-128h-128v-128v-128v-128h-128v-128h-128v128z" />
<glyph unicode="O" horiz-adv-x="1408" d="M0 256v128v128v128v128v128h128v128v128v128v128h128v128h128h128h128h128h128v-128h128h128v-128h128v-128v-128v-128v-128v-128v-128v-128v-128h-128v-128h-128h-128h-128v-128h-128h-128h-128v128h-128h-128v128h-128zM256 384h128h128v-128h128h128h128v128h128v128 v128v128v128v128v128h-128v128h-128h-128h-128v-128h-128v-128v-128v-128h-128v-128v-128v-128z" />
<glyph unicode="P" horiz-adv-x="1408" d="M0 0v128v128v128v128h128v128v128v128h128v128v128v128v128h128v128h128h128h128h128v-128h128h128v-128v-128h128v-128v-128h-128v-128h-128v-128h-128h-128h-128h-128h-128v-128h-128v-128v-128v-128v-128h-128h-128zM384 896h128h128h128h128v128h128v128h-128v128 h-128h-128h-128v-128h-128v-128v-128z" />
<glyph unicode="Q" horiz-adv-x="1536" d="M0 256v128v128v128v128v128h128v128v128v128v128h128v128h128h128h128h128h128v-128h128h128v-128h128v-128v-128v-128v-128v-128v-128v-128v-128h-128v-128h128h128v-128v-128h-128h-128v128h-128v128h-128h-128v-128h-128h-128h-128v128h-128h-128v128h-128zM256 384 h128h128v-128h128h128v128h-128v128h-128v128h128h128v-128h128v-128h128v128v128v128v128v128v128h-128v128h-128h-128h-128v-128h-128v-128v-128v-128h-128v-128v-128v-128z" />
<glyph unicode="R" horiz-adv-x="1536" d="M0 0v128v128v128v128v128h128v128v128v128v128v128v128h128v128h128h128h128h128h128h128v-128h128v-128h128v-128v-128h-128v-128h-128v-128v-128h128v-128v-128h128v-128v-128h128v-128h-128h-128h-128v128v128v128h-128v128v128h-128h-128h-128h-128v-128v-128h-128 v-128v-128v-128h-128h-128zM384 896h128h128h128v128h128h128v128v128h-128h-128h-128h-128h-128v-128v-128v-128z" />
<glyph unicode="S" d="M0 128v128v128v128h128h128v-128v-128h128h128h128v128v128h-128v128h-128v128h-128v128h-128v128v128v128v128h128v128h128h128h128h128h128v-128h128v-128h128v-128v-128h-128v128h-128v128h-128h-128h-128h-128v-128v-128h128v-128h128v-128h128v-128h128v-128h128 v-128v-128h-128v-128h-128v-128h-128h-128h-128h-128h-128v128h-128z" />
<glyph unicode="T" d="M-128 1280v128h128v128h128h128h128h128h128h128h128h128h128v-128v-128h-128h-128v-128h-128v-128v-128v-128v-128v-128v-128h-128v-128v-128v-128h-128h-128h-128v128v128v128v128h128v128v128v128v128v128v128h-128h-128h-128h-128z" />
<glyph unicode="U" horiz-adv-x="1408" d="M0 640v128v128v128v128v128v128h128h128v-128v-128v-128v-128v-128h128v-128v-128v-128h128v-128h128h128h128v128v128v128v128v128h128v128v128v128v128h128h128v-128v-128v-128v-128v-128v-128v-128v-128v-128h-128v-128h-128v-128h-128h-128h-128h-128h-128h-128v128 v128h-128v128v128v128h-128z" />
<glyph unicode="V" horiz-adv-x="1408" d="M0 1152v128v128v128h128h128v-128v-128v-128h128v-128v-128h128v-128v-128v-128h128h128v128v128h128v128v128v128h128v128v128v128h128h128v-128v-128v-128v-128h-128v-128v-128h-128v-128v-128h-128v-128v-128h-128v-128h-128v-128h-128v128v128h-128v128h-128v128v128 v128h-128v128v128v128h-128z" />
<glyph unicode="W" horiz-adv-x="1920" d="M-128 1024v128v128v128v128h128h128v-128v-128v-128v-128h128v-128v-128v-128h128v-128h128v128v128v128v128h128v128v128h128v128h128v128h128v-128v-128h128v-128v-128v-128v-128v-128h128h128v128v128v128v128v128h128v128v128h128h128v-128v-128v-128v-128v-128h-128 v-128h-128v-128v-128h-128v-128v-128v-128h-128v-128h-128h-128v128v128v128v128h-128v128v128v128v128h-128v-128v-128v-128v-128h-128v-128v-128h-128v-128h-128v-128h-128v128v128v128h-128v128v128v128h-128v128v128h-128z" />
<glyph unicode="X" horiz-adv-x="1664" d="M0 0v128v128h128v128h128v128h128v128h128v128h-128v128v128h-128v128h-128v128h-128v128v128h128h128v-128h128v-128h128v-128h128v-128h128h128v128h128v128h128v128h128v128h128v-128h128v-128h-128v-128h-128v-128h-128v-128h-128v-128h-128v-128v-128h128v-128h128 v-128v-128v-128v-128h-128v128h-128v128h-128v128v128h-128v128h-128v-128h-128v-128h-128v-128v-128h-128h-128z" />
<glyph unicode="Y" horiz-adv-x="1536" d="M-128 1408v128h128h128v-128h128v-128h128v-128h128v-128h128h128v128h128v128h128v128h128v128h128v-128h128v-128h-128v-128h-128v-128h-128v-128h-128v-128v-128h-128v-128v-128v-128v-128h-128v-128h-128h-128v128v128v128h128v128v128v128h-128v128h-128v128v128 h-128v128h-128v128h-128z" />
<glyph unicode="Z" horiz-adv-x="1536" d="M0 0v128v128h128v128h128v128v128h128v128v128h128v128h128v128h-128h-128h-128v128h-128v128h-128v128h128h128h128h128v-128h128h128h128h128h128v-128h128v-128h-128v-128h-128h-128v-128h-128v-128v-128h-128v-128h-128v-128h-128v-128h128h128h128h128h128h128h128 h128v-128h-128h-128v-128h-128h-128h-128h-128h-128h-128h-128h-128h-128z" />
<glyph unicode="[" horiz-adv-x="896" d="M-128 0v128h128v128v128v128v128v128v128h128v128v128v128v128h-128v128h128h128h128h128h128h128v-128v-128h-128h-128h-128v-128v-128h-128v-128v-128v-128v-128v-128v-128h-128v-128v-128v-128h128h128h128v-128v-128h-128h-128h-128h-128h-128v128v128v128z" />
<glyph unicode="\" horiz-adv-x="896" d="M-128 1280v128v128h128h128v-128v-128h128v-128h128v-128v-128v-128h128v-128v-128v-128h128v-128v-128h128v-128h-128h-128h-128v128v128v128h-128v128v128v128h-128v128v128v128h-128v128h-128z" />
<glyph unicode="]" horiz-adv-x="1024" d="M0 -128h128h128v128v128h128v128v128v128h128v128v128v128v128h128v128v128h-128h-128v128h-128v128h128h128h128h128h128v-128v-128v-128v-128v-128v-128h-128v-128v-128v-128h-128v-128v-128h-128v-128v-128v-128h-128v-128h-128h-128h-128v128v128z" />
<glyph unicode="^" horiz-adv-x="1024" d="M0 640v128v128h128v128v128v128h128v128v128h128h128h128v-128v-128v-128h128v-128v-128h128v-128h-128h-128v128v128h-128v128v128h-128v-128v-128h-128v-128v-128h-128v-128h-128z" />
<glyph unicode="_" horiz-adv-x="1152" d="M0 -128h128h128h128h128h128h128v-128h128h128v-128h-128h-128h-128h-128h-128h-128h-128v128h-128v128z" />
<glyph unicode="`" horiz-adv-x="768" d="M0 1280v128v128h128h128v-128h128v-128h128h128v-128h-128h-128h-128v128h-128h-128z" />
<glyph unicode="a" horiz-adv-x="1152" d="M0 640v128v128h128v128h128v128h128h128h128h128v-128h128v-128v-128v-128v-128h128v-128v-128v-128v-128h-128h-128v128h-128h-128v-128h-128h-128v128h-128v128v128h128v128h128v128h128h128v128v128h-128h-128v-128h-128v-128h-128h-128zM384 256h128h128v128v128 h-128v-128h-128v-128z" />
<glyph unicode="b" horiz-adv-x="1152" d="M0 640v128v128v128v128v128v128v128h128v-128v-128h128v-128v-128v-128h128v-128h128h128h128v-128h128v-128h128v-128v-128v-128h-128v-128h-128v-128h-128h-128h-128h-128v128h-128v128v128v128v128v128h-128zM384 128h128h128h128v128v128v128h-128h-128h-128v-128 v-128v-128z" />
<glyph unicode="c" horiz-adv-x="896" d="M0 128v128v128v128v128v128v128h128v128h128h128h128h128v-128h128v-128v-128h-128h-128v128h-128v-128h-128v-128v-128v-128h128h128v128h128h128v-128v-128h-128h-128v-128h-128h-128h-128v128h-128z" />
<glyph unicode="d" horiz-adv-x="1152" d="M0 128v128v128v128v128h128v128h128v128h128h128v-128h128v128v128h128v128v128v128v128h128h128v-128v-128v-128v-128v-128v-128h-128v-128v-128v-128v-128v-128h-128v-128h-128h-128h-128h-128h-128v128h-128zM256 256h128h128h128v128v128h-128v128h-128v-128h-128 v-128v-128z" />
<glyph unicode="e" horiz-adv-x="1152" d="M0 384v128v128v128v128h128v128h128v128h128h128h128h128v-128h128v-128h128v-128v-128h-128v-128h-128h-128v-128h-128h-128v-128h128h128h128v128h128h128v-128v-128h-128h-128v-128h-128h-128h-128h-128v128h-128v128v128h-128zM256 640h128h128v128h128h128v128h-128 h-128h-128v-128h-128v-128z" />
<glyph unicode="f" horiz-adv-x="1024" d="M0 896v128h128h128v128v128v128h128v128h128h128h128v-128h128v-128v-128h-128h-128v128h-128v-128v-128h128h128v-128v-128h-128h-128v-128v-128v-128v-128v-128v-128h-128h-128h-128v128v128v128v128h128v128v128h-128v128h-128z" />
<glyph unicode="g" d="M0 0h128h128v-128h128v-128h128h128v128v128h128v128h-128h-128h-128h-128v128h-128v128h-128v128v128v128v128h128v128h128v128h128h128h128v-128h128v128h128h128h128v-128v-128h-128v-128v-128v-128v-128v-128v-128v-128v-128v-128h-128v-128h-128v-128h-128h-128 h-128h-128v128h-128h-128v128v128v128zM256 512h128v-128h128h128h128v128v128v128h-128v128h-128v-128h-128h-128v-128v-128z" />
<glyph unicode="h" horiz-adv-x="1408" d="M0 0v128v128v128h128v128v128v128v128v128v128v128v128v128h128h128h128v-128v-128v-128h-128v-128v-128v-128h128v128h128h128h128v-128h128v-128h128v-128h128v-128v-128v-128h-128v-128h-128h-128v128v128v128v128h-128v128h-128v-128h-128v-128v-128h-128v-128v-128 h-128h-128h-128z" />
<glyph unicode="i" horiz-adv-x="512" d="M0 0v128v128v128v128h128v128v128h128h128v-128v-128v-128h-128v-128v-128h-128v-128h-128zM0 896v128v128v128h128h128h128v-128v-128h-128v-128h-128h-128z" />
<glyph unicode="j" horiz-adv-x="768" d="M-128 0v128v128h128h128v-128v-128h128h128v128v128v128v128v128v128v128v128h128v128h128v-128v-128v-128v-128v-128v-128v-128v-128v-128h-128v-128v-128h-128h-128v-128h-128v128h-128v128h-128v128zM128 1152v128v128v128h128h128h128v-128v-128h-128v-128h-128h-128 z" />
<glyph unicode="k" horiz-adv-x="1152" d="M0 0v128h128v128v128v128v128h-128v128v128v128v128v128v128v128h128h128v-128v-128v-128v-128v-128h128v128h128v128h128v128h128h128v-128v-128h-128v-128h-128v-128h-128v-128h128v-128h128v-128h128v-128h128v-128v-128h-128h-128v128h-128v128h-128v128h-128v-128 v-128v-128h-128h-128h-128z" />
<glyph unicode="l" horiz-adv-x="640" d="M0 0v128v128v128v128v128v128v128h128v128v128v128h128v128h128v-128v-128v-128v-128v-128v-128h-128v-128v-128v-128h128v-128h128v-128h-128h-128h-128h-128z" />
<glyph unicode="m" horiz-adv-x="1792" d="M0 896v128v128v128h128v-128h128v-128h128v128h128h128v-128h128h128v-128v-128h128v128h128h128h128v-128h128v-128v-128h128v-128v-128h-128v-128v-128v-128h-128h-128v128v128v128v128v128v128h-128h-128v-128h-128v-128v-128v-128v-128v-128h-128v128h-128v128v128 v128v128v128h128v128h-128h-128h-128v-128v-128v-128v-128v-128h-128v-128h-128v128v128v128v128v128v128v128h-128z" />
<glyph unicode="n" d="M0 0v128v128v128h128v128v128v128v128v128v128h128v128h128v-128v-128v-128h128v128h128h128h128v-128h128v-128h128v-128v-128v-128v-128v-128v-128h-128v-128h-128v128v128v128v128v128v128h-128v128h-128h-128v-128h-128v-128v-128h-128v-128v-128v-128v-128h-128v128 h-128z" />
<glyph unicode="o" horiz-adv-x="1152" d="M0 256v128v128v128v128h128v128h128v128h128h128h128h128v-128h128v-128h128v-128v-128v-128v-128h-128v-128h-128h-128h-128h-128h-128h-128v128h-128zM256 384h128h128h128h128v128v128v128h-128h-128h-128v-128h-128v-128v-128z" />
<glyph unicode="p" d="M0 -384h128v128v128v128v128v128v128v128v128v128h-128v128v128v128h128h128v-128h128v128h128h128h128v-128h128v-128h128v-128h128v-128v-128v-128h-128v-128h-128v-128h-128h-128h-128h-128v-128v-128v-128v-128h-128v-128h-128h-128v128zM384 384h128h128h128v128 h128v128h-128v128h-128h-128h-128v-128v-128v-128z" />
<glyph unicode="q" horiz-adv-x="1664" d="M0 256v128v128v128v128h128v128h128v128h128h128h128h128v-128v-128h128v128h128h128v-128v-128h-128v-128v-128v-128v-128v-128v-128v-128h128h128v128v128h128h128v-128v-128h-128v-128v-128h-128h-128h-128h-128v128h-128v128v128v128v128h-128v-128h-128h-128h-128 v128h-128v128h-128zM256 256h128h128h128v128h128v128v128h-128v128h-128h-128v-128h-128v-128v-128v-128z" />
<glyph unicode="r" horiz-adv-x="896" d="M0 512v128v128v128v128h128v128h128v-128v-128h128h128h128v-128h128v-128v-128h-128h-128v128h-128v-128v-128v-128v-128v-128h-128h-128v128v128v128v128h-128z" />
<glyph unicode="s" horiz-adv-x="1152" d="M0 128v128v128h128v-128h128h128v-128h128v128v128h-128h-128v128h-128v128h-128v128v128h128v128h128h128v128h128h128h128h128v-128v-128h128v-128v-128h-128h-128v128v128h-128h-128v-128h-128v-128h128v-128h128h128v-128h128v-128v-128h-128v-128h-128v-128h-128 h-128h-128v128h-128v128h-128z" />
<glyph unicode="t" horiz-adv-x="1024" d="M-128 768v128v128h128h128v128v128v128h-128v128h128h128h128v-128v-128v-128v-128h128h128v128h128h128v-128v-128h-128v-128h-128h-128v-128v-128v-128v-128v-128v-128h-128h-128h-128v128v128h128v128v128v128v128h-128h-128h-128z" />
<glyph unicode="u" d="M0 256v128v128v128v128v128h128v128h128v-128v-128v-128v-128v-128v-128h128h128v128h128v128v128v128v128h128h128v-128v-128v-128v-128v-128h128v-128h128v-128v-128h-128h-128v128h-128v128h-128v-128h-128h-128h-128h-128v128v128h-128z" />
<glyph unicode="v" horiz-adv-x="1152" d="M-128 768v128v128h128h128v-128h128v-128v-128v-128h128h128v128v128v128h128v128h128h128h128v-128h-128v-128v-128h-128v-128v-128h-128v-128h-128v-128h-128v-128h-128v128h-128v128v128h-128v128v128v128h-128z" />
<glyph unicode="w" horiz-adv-x="1792" d="M-128 640v128v128v128h128h128v-128v-128h128v-128v-128v-128h128v128v128h128v128h128v128h128h128v-128v-128v-128h128v-128v-128h128v128v128v128h128v128v128h128v128v128h128h128v-128v-128v-128h-128v-128v-128h-128v-128v-128h-128v-128v-128h-128h-128h-128v128 v128v128h-128v128h-128v-128v-128h-128v-128h-128v-128h-128h-128v128v128v128v128h-128v128h-128z" />
<glyph unicode="x" horiz-adv-x="1024" d="M0 0v128v128h128v128h128v128v128h-128v128h-128v128v128h128h128v-128v-128h128v-128h128v128v128h128v128h128h128v-128v-128h-128v-128h-128v-128v-128h128v-128h128v-128v-128h-128h-128v128h-128v128v128h-128v-128h-128v-128v-128h-128h-128z" />
<glyph unicode="y" horiz-adv-x="1024" d="M0 -384h128v128v128h128v128h128v128h-128v128h-128v128v128v128h-128v128h128h128h128v-128v-128v-128h128h128v128v128v128h128v128h128v-128v-128v-128v-128v-128h-128v-128v-128h-128v-128h-128v-128h-128v-128h-128v-128h-128h-128v128z" />
<glyph unicode="z" horiz-adv-x="1152" d="M0 128v128v128h128v128h128v128h128h128v128h128v128h-128h-128h-128h-128h-128v128h128v128h128h128h128h128h128h128h128v-128v-128h-128v-128h-128v-128h-128v-128h-128v-128h-128h-128v-128h128h128h128v128h128h128h128v-128v-128v-128h-128h-128h-128h-128h-128 h-128h-128v128h-128z" />
<glyph unicode="{" horiz-adv-x="768" d="M0 512v128v128h128v128h128v128v128v128v128h128v128h128h128v-128v-128h-128v-128v-128v-128v-128h-128v-128h-128v-128v-128h128h128v-128v-128v-128v-128h128v-128v-128h-128h-128v128h-128v128v128v128v128h-128v128v128h-128z" />
<glyph unicode="|" horiz-adv-x="640" d="M0 0v128v128h128v128v128v128v128v128v128v128h128v128v128v128h128h128v-128v-128v-128v-128h-128v-128v-128v-128v-128v-128v-128v-128h-128v-128v-128v-128v-128h-128h-128v128v128v128z" />
<glyph unicode="}" horiz-adv-x="896" d="M0 -256h128v128v128h128v128v128h128v128v128v128h-128v128v128v128v128h-128v128h-128v128v128h128h128h128v-128v-128v-128v-128h128v-128v-128h128v-128h128v-128h-128v-128h-128v-128v-128v-128h-128v-128v-128v-128h-128h-128h-128v128z" />
<glyph unicode="~" d="M0 512v128v128h128v128h128v128h128h128v-128h128v-128h128h128v128h128v128h128v-128v-128h-128v-128h-128v-128h-128h-128v128h-128v128h-128h-128v-128h-128v-128h-128z" />
<glyph unicode="&#xa1;" horiz-adv-x="640" d="M0 0v128v128v128h128v128v128v128h128h128v-128v-128v-128v-128v-128h-128v-128v-128v-128v-128h-128h-128v128v128v128zM128 1024v128v128h128v128h128v-128h128v-128h-128v-128h-128h-128z" />
<glyph unicode="&#xa2;" horiz-adv-x="1152" d="M-128 256v128v128v128v128h128v128v128h128v128h128h128h128v128v128h128h128v-128v-128h128v-128h128v-128v-128v-128h-128v128h-128v128h-128v-128v-128v-128v-128v-128h128v128v128h128h128v-128v-128h-128v-128h-128v-128h-128h-128v-128v-128h-128h-128v128v128v128 h-128h-128v128h-128zM128 384h128v-128h128v128v128v128v128v128h-128v-128h-128v-128v-128v-128z" />
<glyph unicode="&#xa3;" horiz-adv-x="1408" d="M-128 512v128v128h128v128v128v128v128h128v128v128h128h128h128h128h128h128v-128h128v-128v-128h-128h-128v128h-128h-128v128h-128v-128h-128v-128v-128v-128h128h128h128h128h128v-128h128v-128h-128h-128h-128h-128h-128v-128v-128h128h128h128v-128h128h128v-128 h128v-128h128v-128h-128h-128h-128v128h-128h-128v128h-128h-128h-128h-128v-128h-128v128v128h128v128v128h-128h-128z" />
<glyph unicode="&#xa4;" d="M0 256v128v128h128v128v128v128v128v128h-128v128h128h128h128v-128h128h128h128v128h128h128v-128v-128h-128v-128h128v-128v-128h-128v-128h128v-128h128v-128v-128h-128h-128v128h-128v128h-128h-128h-128h-128v-128h-128h-128zM384 640h128h128h128v128v128h-128 h-128h-128v-128v-128z" />
<glyph unicode="&#xa5;" d="M0 128v128h128v128h128h128v128h-128h-128h-128v128v128h128h128h128v128h-128v128h-128v128v128h-128v128v128h128v-128h128v-128h128v-128h128v-128v-128h128v128v128h128v128v128h128v128h128h128v-128v-128h-128v-128v-128h-128v-128h-128v-128h128v-128h128h128 v-128h-128h-128h-128h-128v-128h128h128v-128h128h128v-128h-128h-128h-128h-128v-128v-128h-128h-128v128v128h-128h-128h-128z" />
<glyph unicode="&#xa6;" horiz-adv-x="512" d="M0 0v128v128v128h128h128v-128v-128v-128v-128v-128h-128v-128h-128v128v128v128zM0 768v128v128v128v128h128v128v128h128h128v-128v-128v-128h-128v-128v-128v-128v-128h-128v128h-128z" />
<glyph unicode="&#xa7;" horiz-adv-x="1152" d="M-128 0h128v128h128v-128h128v-128h128v-128h128v128h128v128h-128v128h-128h-128v128h-128v128h-128v128v128v128h128h128v128h-128v128v128h-128v128v128h128v128h128h128h128h128h128v-128h128v-128h128v-128v-128h-128h-128v128h-128v128h-128h-128v-128v-128h128 h128v-128h128v-128h128v-128h128v-128v-128v-128h-128v-128h-128v-128h128v-128v-128v-128h-128v-128h-128h-128h-128h-128v128h-128v128h-128v128h-128v128zM256 512h128v-128h128v-128h128h128v128v128h-128v128h-128v128h-128v-128h-128v-128z" />
<glyph unicode="&#xa8;" horiz-adv-x="896" d="M0 1280v128h128v128h128v-128v-128v-128h-128v128h-128zM384 1152v128v128h128v128h128h128v-128h-128v-128v-128h-128h-128z" />
<glyph unicode="&#xa9;" horiz-adv-x="1664" d="M-128 384v128v128v128v128v128h128v128v128h128v128h128v128h128h128h128h128h128h128v-128h128h128v-128h128v-128v-128h128v-128v-128v-128v-128v-128h-128v-128v-128h-128v-128h-128v-128h-128h-128h-128h-128h-128h-128v128h-128h-128v128h-128v128v128h-128z M128 512h128v-128v-128h128v-128h128h128h128h128h128v128h128v128v128h128v128v128v128v128h-128v128h-128v128h-128h-128h-128h-128h-128v-128h-128v-128h-128v-128v-128v-128v-128zM384 384v128v128v128v128v128h128v128h128h128h128v-128h128v-128v-128h-128v128h-128 h-128v-128v-128v-128h128v128h128h128v-128v-128h-128v-128h-128h-128h-128v128h-128z" />
<glyph unicode="&#xad;" horiz-adv-x="896" d="M0 512v128h128v128h128h128h128h128h128v-128h-128v-128h-128h-128h-128h-128h-128z" />
<glyph unicode="&#x2000;" horiz-adv-x="768" />
<glyph unicode="&#x2001;" horiz-adv-x="1536" />
<glyph unicode="&#x2002;" horiz-adv-x="768" />
<glyph unicode="&#x2003;" horiz-adv-x="1536" />
<glyph unicode="&#x2004;" horiz-adv-x="512" />
<glyph unicode="&#x2005;" horiz-adv-x="384" />
<glyph unicode="&#x2006;" horiz-adv-x="256" />
<glyph unicode="&#x2007;" horiz-adv-x="256" />
<glyph unicode="&#x2008;" horiz-adv-x="192" />
<glyph unicode="&#x2009;" horiz-adv-x="307" />
<glyph unicode="&#x200a;" horiz-adv-x="85" />
<glyph unicode="&#x2010;" horiz-adv-x="896" d="M0 512v128h128v128h128h128h128h128h128v-128h-128v-128h-128h-128h-128h-128h-128z" />
<glyph unicode="&#x2011;" horiz-adv-x="896" d="M0 512v128h128v128h128h128h128h128h128v-128h-128v-128h-128h-128h-128h-128h-128z" />
<glyph unicode="&#x2012;" horiz-adv-x="896" d="M0 512v128h128v128h128h128h128h128h128v-128h-128v-128h-128h-128h-128h-128h-128z" />
<glyph unicode="&#x2013;" horiz-adv-x="1152" d="M0 512v128h171v128h170h171h171h170h171v-128h-171v-128h-170h-171h-171h-170h-171z" />
<glyph unicode="&#x2014;" horiz-adv-x="2176" d="M0 512v128h341v128h342h341h341h342h341v-128h-341v-128h-342h-341h-341h-342h-341z" />
<glyph unicode="&#x202f;" horiz-adv-x="307" />
<glyph unicode="&#x205f;" horiz-adv-x="384" />
<glyph unicode="&#x20ac;" horiz-adv-x="1408" d="M-256 384v128h128v128h128h128v128h-128h-128h-128v128h128v128h128h128v128v128h128v128h128v128h128h128h128h128h128v-128h128h128v-128v-128h-128h-128h-128v128h-128h-128h-128v-128v-128h128h128h128v-128h-128v-128h-128h-128h-128v-128h128h128h128h128v-128 h-128v-128h-128h-128h-128v-128h128h128h128h128v128h128h128h128v-128v-128h-128v-128h-128h-128h-128h-128h-128h-128v128h-128v128h-128v128h-128h-128h-128z" />
<glyph unicode="&#x25fc;" horiz-adv-x="1020" d="M0 0v1020h1020v-1020h-1020z" />
</font>
</defs>
</svg>
