<?xml version="1.0" standalone="no"?>
<!DOCTYPE svg PUBLIC "-//W3C//DTD SVG 20010904//EN"
 "http://www.w3.org/TR/2001/REC-SVG-20010904/DTD/svg10.dtd">
<svg version="1.0" xmlns="http://www.w3.org/2000/svg"
 width="1024.000000pt" height="1024.000000pt" viewBox="0 0 1024.000000 1024.000000"
 preserveAspectRatio="xMidYMid meet">
<metadata>
Created by potrace 1.11, written by Peter Selinger 2001-2013
</metadata>
<g transform="translate(0.000000,1024.000000) scale(0.100000,-0.100000)"
fill="#000000" stroke="none">
<path d="M0 5120 l0 -5120 5120 0 5120 0 0 5120 0 5120 -5120 0 -5120 0 0
-5120z m7885 3964 c0 -73 -3 -87 -39 -160 -58 -117 -204 -259 -396 -387 -106
-70 -148 -93 -157 -85 -7 6 -22 8 -34 5 -16 -4 -18 -3 -8 9 6 7 15 11 20 8 17
-10 297 186 384 268 99 93 178 206 201 285 16 54 16 141 0 188 -3 11 2 4 11
-15 13 -25 18 -59 18 -116z m-321 -10 c32 -12 14 -21 -56 -27 -40 -4 -135 -22
-210 -40 -76 -19 -138 -31 -138 -27 0 26 46 41 285 93 32 7 102 8 119 1z
m-981 -213 c-96 -86 -336 -206 -693 -345 -107 -42 -201 -84 -208 -94 -15 -20
-82 -227 -82 -254 0 -10 -4 -18 -10 -18 -5 0 -10 12 -10 27 0 39 67 247 87
272 10 11 95 50 198 90 292 112 516 216 619 287 53 37 135 83 146 83 3 0 -19
-21 -47 -48z m484 -125 c-3 -39 -17 -118 -31 -176 -14 -58 -26 -122 -26 -142
0 -21 -4 -38 -10 -38 -18 0 -10 102 15 210 14 58 28 138 32 178 4 56 9 70 16
56 5 -9 7 -49 4 -88z m-4557 -208 c-1 -38 9 -30 -310 -252 -627 -434 -849
-637 -850 -773 0 -23 -4 -45 -10 -48 -6 -4 -10 16 -10 51 0 78 26 127 118 226
126 133 317 282 722 563 265 183 317 223 323 245 8 31 17 24 17 -12z m2660
-208 c0 -146 -57 -279 -169 -391 -124 -124 -265 -196 -525 -266 -72 -19 -136
-42 -143 -50 -7 -9 -27 -59 -44 -112 -38 -114 -38 -116 -51 -103 -12 12 55
224 77 246 8 7 47 22 87 31 136 33 280 85 382 137 81 43 118 70 187 138 122
121 179 247 179 400 0 46 3 61 10 50 5 -8 10 -44 10 -80z m1989 58 c0 -28 -2
-30 -9 -13 -12 28 -12 45 0 45 6 0 10 -15 9 -32z m-2269 -33 c17 -9 30 -17 30
-19 0 -1 -24 -1 -52 2 -87 7 -260 -64 -332 -135 -43 -44 -156 -335 -156 -404
0 -16 -4 -29 -10 -29 -13 0 -13 75 1 125 27 100 113 302 142 332 57 60 237
140 320 142 15 1 41 -6 57 -14z m1891 -131 c-27 -42 -67 -153 -86 -238 -3 -15
-8 -26 -11 -23 -3 2 7 58 21 123 21 94 34 131 63 174 30 45 37 51 40 34 2 -12
-11 -43 -27 -70z m-488 49 c-23 -8 -63 -45 -58 -53 4 -6 -219 -89 -608 -225
-60 -21 -110 -43 -112 -49 -31 -120 -117 -315 -149 -340 -36 -28 -40 -16 -9
27 14 20 36 60 48 89 55 132 75 186 85 226 6 23 16 42 22 42 27 0 708 245 718
258 9 12 65 39 70 34 3 -3 0 -7 -7 -9z m696 -12 c20 -11 44 -27 51 -36 11 -13
6 -12 -20 4 -54 33 -66 28 -101 -41 -17 -35 -33 -65 -34 -66 -6 -7 -45 9 -45
18 0 5 6 7 13 5 7 -3 25 22 45 65 18 39 37 70 43 70 5 0 27 -9 48 -19z m-3129
-405 c-23 -374 -74 -538 -231 -743 -197 -255 -564 -463 -709 -400 l-35 15 55
-5 c43 -4 73 1 135 22 299 99 592 392 697 695 31 91 58 293 64 480 6 207 13
251 26 170 6 -34 5 -122 -2 -234z m3426 193 c49 -23 175 -70 280 -105 334
-109 331 -108 494 -109 80 0 204 4 275 8 132 9 256 9 264 1 14 -14 -52 -23
-171 -23 -10 0 -30 0 -45 0 -16 0 -118 -3 -228 -7 -234 -7 -234 -7 -596 115
-219 74 -342 129 -399 181 l-35 31 36 -25 c19 -14 75 -44 125 -67z m-3526 44
c0 -21 -5 -45 -10 -53 -8 -12 -10 -11 -10 6 0 12 -3 36 -6 53 -5 24 -3 31 10
31 12 0 16 -9 16 -37z m1885 27 c3 -5 -1 -10 -9 -10 -8 0 -27 -5 -41 -10 -26
-10 -27 -11 -11 -35 14 -21 14 -25 2 -25 -8 0 -18 10 -21 23 -4 12 -9 30 -11
39 -5 17 11 25 58 27 15 0 30 -3 33 -9z m-2460 -254 c-4 -17 -29 -94 -57 -170
-107 -299 -151 -521 -125 -623 8 -29 12 -53 10 -53 -2 0 -13 21 -25 47 -18 41
-20 59 -15 138 8 115 59 315 131 513 31 84 56 164 56 179 0 22 2 24 15 13 11
-9 14 -22 10 -44z m-105 -20 c0 -6 -7 -2 -15 8 -8 11 -15 25 -15 30 0 6 7 2
15 -8 8 -11 15 -25 15 -30z m-93 -58 c-3 -8 -6 -5 -6 6 -1 11 2 17 5 13 3 -3
4 -12 1 -19z m-1897 -73 c0 -16 -33 -66 -41 -63 -6 2 -19 18 -30 36 l-21 32
46 0 c25 0 46 -2 46 -5z m1447 -154 c-7 -138 -20 -200 -71 -319 -91 -216 -280
-456 -554 -705 -242 -219 -721 -622 -730 -613 -12 13 51 75 207 204 603 501
872 778 1009 1040 28 53 65 140 83 192 27 82 32 113 37 229 3 95 8 128 15 116
6 -11 7 -68 4 -144z m363 152 c0 -5 -9 -30 -19 -58 -26 -68 -57 -73 -115 -17
-22 22 -57 49 -76 61 l-35 21 123 0 c67 0 122 -3 122 -7z m2971 -94 c-36 -20
-129 -74 -206 -121 -77 -46 -166 -98 -197 -116 l-57 -32 -28 26 c-15 15 -20
21 -10 14 21 -15 37 -7 302 150 268 159 249 149 256 131 4 -12 -11 -25 -60
-52z m-3851 -144 c17 -9 30 -17 30 -18 0 -1 -35 -2 -78 -2 -97 -1 -230 -40
-462 -138 -256 -107 -335 -136 -410 -149 -63 -11 -72 -10 -87 5 -16 16 -15 17
24 17 62 0 191 41 369 118 185 81 301 123 429 157 106 28 146 30 185 10z
m2186 -43 c-5 -5 -86 44 -86 52 0 3 20 -7 46 -21 25 -14 43 -28 40 -31z m2679
-312 c15 -23 35 -39 59 -46 l37 -11 40 78 c21 44 44 79 49 79 15 0 13 -10 -21
-104 -29 -77 -30 -87 -16 -101 15 -14 32 -7 193 76 166 86 178 90 191 73 7
-10 13 -20 13 -23 0 -3 -84 -53 -185 -111 -133 -75 -185 -110 -185 -123 0 -10
-7 -28 -15 -40 -13 -21 -10 -31 44 -147 l59 -125 -22 -17 c-20 -16 -22 -16
-34 8 -20 38 -25 29 -20 -41 l6 -65 -34 -6 -34 -6 0 -87 c0 -47 5 -169 10
-271 5 -102 17 -329 25 -505 8 -176 18 -343 21 -371 l6 -52 -64 -11 c-88 -15
-265 -14 -373 3 -107 17 -459 77 -461 80 -1 0 -9 226 -18 501 -9 275 -19 540
-22 588 l-6 88 -54 -31 c-35 -20 -79 -34 -125 -40 -40 -6 -73 -9 -75 -7 -2 1
35 24 82 51 47 27 83 51 80 53 -9 10 -245 -20 -580 -72 -191 -30 -349 -55
-351 -55 -12 0 -16 -147 -15 -672 0 -573 0 -607 -17 -612 -37 -12 -374 -78
-513 -101 -80 -13 -193 -27 -252 -31 l-106 -7 4 409 c8 753 12 959 20 978 6
17 3 18 -25 14 -32 -5 -33 -4 -27 25 12 58 70 158 129 223 144 157 373 261
732 333 96 20 898 148 1058 170 263 36 492 33 641 -8 61 -17 71 -17 84 -4 13
13 9 27 -34 120 -27 58 -50 109 -52 113 -1 4 8 11 20 17 21 9 26 5 67 -66 24
-42 53 -92 66 -111z m-5266 -159 l51 -80 -47 -45 c-26 -24 -48 -44 -49 -43 -9
11 -115 191 -117 199 -2 9 73 45 100 47 6 1 34 -35 62 -78z m41 -175 c0 -8
-14 -22 -32 -31 l-32 -16 29 31 c33 34 35 35 35 16z m7306 -28 c3 -4 17 -74
30 -155 14 -81 27 -149 28 -150 2 -2 49 3 104 12 147 22 138 24 147 -42 14
-98 12 -116 -12 -165 -13 -26 -23 -49 -23 -51 0 -4 36 1 323 43 108 17 203 30
210 30 14 0 17 -37 4 -57 -4 -6 -1 -13 5 -16 7 -2 2 -7 -12 -11 -26 -6 -417
-79 -527 -98 l-63 -11 -44 -81 -44 -81 19 -160 c26 -235 30 -256 52 -300 11
-22 23 -52 28 -67 7 -26 6 -27 -24 -21 -18 3 -64 16 -102 29 -286 92 -706 96
-1320 14 l-140 -19 -39 27 c-24 16 -50 48 -65 77 -25 47 -26 58 -26 200 l0
151 34 66 c41 82 123 167 211 218 114 67 221 98 515 146 358 59 378 63 371 79
-4 12 121 41 267 61 l47 7 -6 51 c-3 28 -11 102 -18 164 -7 62 -10 114 -8 117
8 8 73 2 78 -7z m-5369 -149 c68 -7 99 -7 106 0 13 13 57 14 57 2 0 -6 -4 -13
-10 -16 -15 -9 -12 -25 4 -25 8 0 37 -20 64 -45 64 -58 93 -128 95 -234 l2
-74 -35 -12 c-35 -12 -35 -13 -38 -75 -3 -56 0 -66 23 -90 22 -23 24 -29 11
-39 -8 -7 -19 -10 -25 -7 -5 4 -11 -46 -15 -122 -12 -263 -39 -340 -164 -474
-41 -43 -73 -80 -71 -82 2 -1 32 -19 66 -40 110 -66 149 -134 160 -282 l6 -80
-74 8 c-234 27 -382 5 -619 -90 l-125 -50 -3 65 -3 66 -67 -7 c-84 -9 -950
-150 -1055 -173 -57 -12 -74 -19 -63 -25 9 -5 20 -7 24 -4 4 3 26 1 48 -4 21
-5 83 -11 138 -14 54 -3 100 -7 102 -9 2 -2 -50 -12 -116 -22 -65 -10 -125
-22 -132 -26 -8 -5 -14 -55 -19 -156 -4 -81 -11 -197 -15 -257 l-7 -109 54 6
c151 18 1005 161 1010 169 4 5 10 105 14 221 4 117 8 213 8 213 1 1 19 4 40 8
l37 7 0 -106 c0 -102 1 -105 23 -105 12 0 94 7 182 15 88 7 246 21 350 30 280
23 255 15 255 84 0 32 3 79 6 105 6 44 8 46 40 46 l34 0 0 -280 c0 -297 -9
-379 -51 -477 -26 -62 -81 -135 -130 -173 -37 -30 -45 -32 -141 -36 -80 -4
-127 -13 -213 -40 -156 -49 -371 -90 -1015 -193 -808 -130 -964 -148 -1125
-131 -126 13 -194 40 -243 95 -21 24 -43 59 -48 77 -8 29 -15 34 -49 38 l-40
5 3 90 c3 120 40 609 53 710 9 68 33 154 64 227 5 13 0 20 -20 28 -14 5 -23
14 -20 20 3 5 -3 10 -14 10 -22 0 -233 -31 -573 -85 -119 -19 -224 -32 -233
-29 -9 4 -15 18 -15 35 0 16 -4 29 -9 29 -17 0 -19 26 -2 27 16 2 246 45 581
109 102 19 187 37 189 39 2 2 6 24 8 47 3 24 9 61 16 83 6 22 10 43 9 48 -1 4
2 7 8 7 5 0 10 12 10 26 0 14 4 23 8 20 17 -10 61 48 64 84 2 29 10 39 39 54
l36 20 12 120 c7 67 14 130 16 142 3 13 30 36 67 59 56 34 224 157 408 299
133 102 300 243 466 393 82 74 111 95 150 104 27 7 55 21 64 31 16 19 221 58
630 117 162 24 200 26 225 16 37 -14 245 4 285 25 56 30 97 34 227 19z m5677
-1315 c3 -26 6 -86 6 -134 0 -151 -44 -257 -154 -366 -102 -102 -245 -178
-408 -218 -58 -14 -1540 -257 -1545 -252 -2 1 290 513 297 520 4 4 630 107
1058 173 l102 16 0 73 c0 108 5 104 -119 105 -58 1 -155 4 -216 8 l-110 6 115
13 c63 7 175 20 248 29 73 8 135 13 138 10 7 -7 33 -250 28 -259 -6 -10 -77
-24 -334 -68 -227 -38 -243 -48 -50 -30 58 5 177 14 265 20 259 15 458 30 494
36 l33 5 -6 70 -7 69 26 0 c14 0 35 -5 45 -10 17 -9 20 -6 26 26 3 19 4 71 2
114 -5 84 -6 82 48 89 6 0 14 -20 18 -45z m-2119 -299 c4 -57 4 -131 1 -162
-41 -353 -318 -572 -870 -688 -274 -58 -669 -115 -931 -135 -845 -62 -836 -62
-895 -44 -177 53 -294 174 -329 342 -11 55 -15 500 -5 540 5 17 14 22 40 22
l34 0 0 -125 c0 -112 2 -125 18 -125 16 0 174 15 662 60 113 11 208 19 212 20
3 0 7 53 7 117 1 122 5 133 47 133 20 0 22 -7 29 -120 5 -95 10 -120 21 -120
27 0 885 140 895 145 5 4 9 42 9 86 l0 79 35 0 c31 0 35 -3 41 -36 6 -31 -1
-152 -9 -160 -1 -2 -80 -15 -175 -30 -94 -15 -170 -29 -168 -31 5 -5 1240 98
1246 104 2 2 6 50 8 106 2 56 5 108 7 115 3 6 18 12 34 12 l29 0 7 -105z
m1365 -915 c0 -39 0 -39 33 -34 17 3 38 7 45 10 7 2 12 -6 12 -19 0 -56 9 -65
55 -59 l44 4 3 -38 3 -39 45 3 46 3 37 -387 c20 -213 35 -389 32 -392 -3 -3
-22 -8 -42 -11 -38 -7 -38 -7 -36 -53 l3 -46 -46 -7 -46 -6 4 -47 3 -46 -475
-77 c-261 -43 -487 -80 -502 -83 -25 -5 -27 -3 -30 37 l-3 42 -47 -3 c-44 -3
-48 -1 -48 20 0 13 -11 187 -25 388 -14 201 -28 429 -31 508 l-7 142 26 0 c47
0 57 9 57 54 l0 42 438 71 c240 38 440 68 445 66 4 -2 7 -22 7 -43z m-1780
-281 l0 -40 45 7 45 6 0 -38 c1 -88 38 -745 42 -749 3 -3 100 11 217 30 116
19 215 35 220 35 5 0 12 -20 15 -44 l7 -43 42 8 c23 4 43 7 43 6 1 -1 5 -41 9
-88 6 -85 6 -86 -17 -92 -13 -4 -33 -7 -45 -7 -21 0 -23 -5 -23 -50 0 -27 -2
-50 -4 -50 -3 0 -225 -36 -495 -80 -269 -44 -495 -80 -501 -80 -5 0 -10 20
-10 45 l0 45 -32 -6 c-18 -3 -39 -7 -45 -10 -7 -2 -13 -2 -14 -1 -3 16 -28
802 -29 913 0 149 0 152 23 158 53 14 55 11 62 -80 7 -81 9 -85 29 -80 11 3
31 6 44 6 19 0 22 5 22 44 0 46 10 56 55 56 31 0 36 9 28 54 -6 37 -7 38 -42
33 -20 -4 -60 -9 -88 -13 l-53 -7 0 41 c0 38 2 41 33 47 81 15 384 63 400 64
13 1 17 -7 17 -40z m-854 -181 l42 4 7 -42 7 -41 44 7 44 6 2 -151 c1 -83 2
-161 2 -173 1 -19 -7 -25 -41 -32 -42 -10 -43 -10 -43 -53 0 -45 -1 -46 -65
-55 -16 -3 -21 -12 -23 -46 l-3 -43 45 6 c45 7 46 7 47 -21 3 -60 2 -59 49
-59 l45 0 5 -125 5 -125 40 64 40 65 7 -50 c17 -131 13 -155 -49 -255 l-58
-92 -3 83 c-3 79 -4 82 -25 76 -12 -3 -25 -6 -29 -6 -5 0 -8 -20 -8 -45 0 -50
6 -46 -104 -65 -88 -15 -86 -16 -86 35 l0 45 -32 -6 c-18 -3 -39 -7 -45 -10
-9 -2 -13 8 -13 29 0 50 -11 60 -59 52 l-41 -7 0 46 0 46 -45 -7 -45 -6 0 42
c0 39 -2 41 -29 41 -61 0 -61 0 -61 -146 0 -147 5 -136 -65 -146 -16 -3 -21
-12 -23 -51 -2 -26 -6 -47 -10 -47 -4 0 -103 -16 -220 -35 -118 -19 -218 -35
-223 -35 -5 0 -9 20 -9 44 l0 44 -45 -6 -45 -5 0 536 0 535 45 6 45 7 0 45 c0
24 3 44 8 44 4 1 223 36 487 79 l480 77 5 -40 5 -41 41 3z m-2122 -108 c62
-102 83 -130 100 -130 11 1 138 20 281 43 l260 43 3 -43 3 -42 45 6 44 6 0
-43 0 -42 45 6 45 7 0 -428 c0 -235 -3 -438 -6 -450 -4 -15 -14 -23 -28 -23
-55 0 -66 -10 -66 -56 0 -46 -1 -47 -65 -56 -16 -3 -21 -12 -23 -51 -2 -26 -5
-47 -8 -47 -8 0 -867 -140 -896 -146 -27 -5 -28 -5 -28 41 l0 46 -45 -7 -45
-6 0 46 0 47 -46 -7 -46 -7 6 64 c3 35 11 235 17 444 6 209 14 383 18 387 3 3
23 10 44 13 l37 7 0 -44 0 -44 42 5 c42 6 43 7 51 52 9 46 10 47 53 54 l44 6
0 45 0 45 -45 -7 -45 -6 0 40 c0 47 -2 46 117 63 57 8 81 15 76 23 -4 6 -36
58 -72 115 -36 58 -61 106 -55 108 5 2 27 14 49 27 22 13 45 24 50 25 6 0 45
-58 89 -129z m-704 -304 l0 -44 40 5 40 6 -1 -144 c0 -79 -8 -322 -17 -539
l-17 -395 -47 -9 -47 -9 -3 -46 -3 -46 -105 -17 c-58 -9 -120 -20 -137 -23
l-33 -6 0 46 0 46 -45 -7 -45 -6 0 45 0 45 -45 -6 -45 -5 0 45 c0 45 0 45 -32
40 -46 -6 -58 -19 -58 -62 0 -39 -14 -50 -67 -50 -18 0 -22 -8 -28 -50 -7 -49
-7 -49 -51 -56 -43 -6 -44 -7 -44 -43 0 -20 -4 -41 -8 -47 -4 -7 -97 -26 -207
-43 -110 -17 -212 -33 -227 -36 -27 -4 -28 -3 -28 41 l0 46 -45 -7 -45 -6 5
53 c3 29 19 244 35 478 16 234 32 455 36 492 l6 66 43 6 c41 7 43 8 48 47 3
22 7 43 10 45 5 5 408 73 434 74 7 0 9 -14 6 -41 l-6 -42 47 5 47 6 -7 -147
c-3 -80 -9 -199 -13 -263 -6 -114 -5 -118 14 -118 50 0 63 11 69 55 7 44 21
55 74 55 19 0 22 -5 22 -44 l0 -43 40 7 c23 4 43 9 45 11 2 3 9 119 16 259 6
140 16 261 22 268 5 6 20 12 32 12 45 0 55 10 55 54 l0 43 128 20 c70 12 130
21 135 22 4 1 7 -19 7 -43z m2723 -1125 c23 4 45 8 49 9 6 0 -644 -1056 -660
-1072 -9 -9 -632 993 -632 1015 0 15 14 22 65 29 10 2 22 13 25 24 4 16 68
-81 270 -407 200 -324 267 -426 276 -416 6 6 118 185 249 397 131 212 254 410
274 440 l36 55 3 -41 3 -41 42 8z"/>
<path d="M8298 5936 c-186 -29 -340 -54 -342 -57 -7 -7 8 -217 16 -224 7 -8
147 -16 593 -35 258 -11 360 -22 428 -46 22 -8 42 -12 45 -9 5 5 -14 137 -30
201 l-10 41 -73 5 c-84 6 -162 38 -210 88 -29 30 -29 31 -7 37 12 3 22 9 22
13 0 17 -39 40 -66 39 -16 -1 -181 -25 -366 -53z"/>
<path d="M2475 5964 c-253 -40 -487 -79 -520 -86 l-60 -13 -3 -43 c-2 -24 -11
-165 -21 -314 l-17 -270 56 6 c30 3 292 43 582 88 l528 83 0 85 c0 47 3 135 7
196 l6 112 -27 -5 c-34 -7 -35 15 -1 47 23 21 25 31 25 107 l0 83 -47 -1 c-27
-1 -255 -34 -508 -75z m42 -458 c79 -128 81 -117 -18 -131 l-46 -7 -71 114
-71 113 62 11 c34 6 64 12 67 13 3 0 37 -50 77 -113z"/>
<path d="M101 4714 c0 -11 3 -14 6 -6 3 7 2 16 -1 19 -3 4 -6 -2 -5 -13z"/>
<path d="M1571 4634 c-68 -7 -126 -15 -128 -18 -12 -11 39 -64 79 -81 24 -11
45 -22 48 -25 3 -3 10 -6 15 -6 6 -1 35 -9 65 -17 30 -9 72 -19 92 -22 l36 -6
6 58 c4 32 8 75 10 96 l4 37 -51 -1 c-29 -1 -108 -7 -176 -15z"/>
<path d="M8113 4893 c9 -2 23 -2 30 0 6 3 -1 5 -18 5 -16 0 -22 -2 -12 -5z"/>
<path d="M7710 3904 c-41 -7 -76 -13 -77 -13 -3 -1 9 -165 13 -169 1 -2 21 -1
43 3 41 7 41 7 41 50 l0 44 45 7 c26 3 45 12 45 19 0 32 -14 75 -24 74 -6 -1
-45 -7 -86 -15z"/>
<path d="M8242 3817 l-62 -10 5 -46 c5 -39 45 -547 45 -565 0 -4 10 -4 23 -2
12 3 53 10 90 17 l69 12 -4 43 c-3 46 5 54 60 54 27 0 27 -9 5 242 l-16 198
-46 -3 -46 -2 -3 38 c-4 42 -5 42 -120 24z"/>
<path d="M4930 3456 l-65 -11 -3 -89 -3 -89 32 7 c17 3 38 6 45 6 10 0 14 13
14 44 0 46 11 56 68 56 19 0 22 5 22 45 0 51 2 51 -110 31z"/>
<path d="M5528 3377 l-128 -20 0 -89 c0 -80 2 -89 18 -85 9 3 70 13 135 23
l117 18 0 88 c0 48 -3 87 -7 87 -5 -1 -65 -11 -135 -22z"/>
<path d="M4072 3140 c-57 -10 -106 -21 -110 -25 -6 -5 -22 -605 -16 -613 6 -9
254 32 254 42 0 6 -23 47 -50 91 -56 90 -58 85 33 100 l37 6 0 209 0 210 -22
-1 c-13 0 -69 -9 -126 -19z"/>
<path d="M1950 2976 c-74 -13 -77 -18 -79 -128 -1 -58 1 -66 17 -63 73 15 71
13 74 58 3 42 3 42 51 51 l47 9 0 44 c0 49 2 49 -110 29z"/>
</g>
</svg>
